<?xml version="1.0" encoding="UTF-8" standalone="no"?>
<!DOCTYPE svg  PUBLIC '-//W3C//DTD SVG 1.1//EN'  'http://www.w3.org/Graphics/SVG/1.1/DTD/svg11.dtd'>
<svg xmlns="http://www.w3.org/2000/svg" version="1.1">
<defs>
<font id="Giger" horiz-adv-x="473">
<font-face underline-position="-150" descent="-250" font-weight="400" bbox="-90 -226 795 940" ascent="750" underline-thickness="50" cap-height="653" unicode-range="U+0020-0491" units-per-em="1000" x-height="500" panose-1="0 0 0 0 0 0 0 0 0 0" font-family="Giger"/>
<missing-glyph/>
<glyph horiz-adv-x="396" glyph-name="space" unicode=" "/>
<glyph horiz-adv-x="229" glyph-name="exclam" unicode="!" d="M71 197v456q81 0 81 -94v-456q-81 0 -81 94zM71 6q0 23 16 39.5t39 16.5t39.5 -16.5t16.5 -39.5t-16.5 -39t-39.5 -16t-39 16t-16 39z"/>
<glyph horiz-adv-x="317" glyph-name="quotedbl" unicode='&quot;' d="M50 519v134q35 0 53.5 -20t18.5 -79v-134q-34 0 -53 20.5t-19 78.5zM190 519v134q35 0 53.5 -20t18.5 -79v-134q-34 0 -53 20.5t-19 78.5z"/>
<glyph horiz-adv-x="574" glyph-name="numbersign" unicode="#" d="M196 226l-39 -227q-43 12 -52 61q-5 29 3 77q5 29 15 89h-46q-17 0 -28 5.5t-15.5 17t-6 21.5t-1.5 26h109q4 25 13.5 82t14.5 88h-42q-17 0 -28 5.5t-15.5 17t-6 21.5t-1.5 26h105q4 27 16 102.5t19 114.5q44 -15 54 -65q4 -28 0 -73l-14 -79h135q4 27 16 102.5 t19 114.5q44 -15 54 -65q4 -28 0 -73l-14 -79h32q29 0 38.5 -8.5t9.5 -26.5l-1 -35h-91l-30 -170h30q29 0 38.5 -8.5t9.5 -26.5l-1 -35h-89l-39 -227q-43 12 -52 61q-5 29 3 77q5 29 15 89h-137zM238 466l-30 -170h137q4 25 13.5 82t14.5 88h-135z"/>
<glyph horiz-adv-x="415" glyph-name="dollar" unicode="$" d="M245 628v-20q51 -7 83.5 -30t32.5 -58q0 -21 -21 -40q-18 27 -57 45.5t-78 18.5q-38 0 -63 -20t-25 -62q0 -18 17 -41q23 -25 108 -62q30 -12 49 -22.5t40 -28t31.5 -42t10.5 -56.5q0 -136 -129 -147v-89q-77 0 -77 82v9q-47 9 -76 31.5t-29 55.5q0 23 21 40 q18 -26 57.5 -45t77.5 -19q37 0 60.5 20t23.5 62q0 17 -9 31.5t-29 27.5t-35.5 20.5t-46.5 21.5q-6 3 -9 4q-28 13 -44.5 22t-37.5 26.5t-31 42t-10 56.5q0 130 119 147v101q76 0 76 -82z"/>
<glyph horiz-adv-x="709" glyph-name="percent" unicode="%" d="M291 476q0 168 -128 168q-63 0 -99.5 -48.5t-36.5 -125.5q0 -171 125 -171q65 0 102 49t37 128zM221 474q0 -110 -64 -110q-62 0 -62 109q0 48 17 77.5t48 29.5q61 0 61 -106zM647 155q0 168 -125 168q-63 0 -100 -49.5t-37 -126.5q0 -172 126 -172q63 0 99.5 50 t36.5 130zM579 152q0 -55 -17 -83t-46 -28q-64 0 -64 110q0 49 18 78.5t49 29.5q60 0 60 -107zM440 548l-192 -625q-37 18 -37 70q0 29 14 80q106 345 190 625q37 -23 37 -74q0 -30 -12 -76z"/>
<glyph horiz-adv-x="654" glyph-name="ampersand" unicode="&amp;" d="M205 75h9q78 0 131 72.5t59 171.5q49 -4 68.5 -18t19.5 -42q-3 -45 -48 -113q32 -29 70.5 -55t61.5 -38l22 -12q-38 -50 -87 -50q-33 2 -68 27.5t-58 53.5q-57 -71 -160 -71h-14q-78 5 -122 52t-44 110v10q3 47 33 90.5t84 71.5q-75 75 -75 157q0 76 49 118.5t126 42.5 q68 0 116.5 -42.5t48.5 -120.5q0 -52 -29 -87t-83 -35q-23 2 -32 7q32 23 52.5 57t20.5 68q0 39 -28.5 62.5t-67.5 23.5t-70 -24t-31 -71q0 -54 50 -119q11 -15 31.5 -35.5t60 -58.5t56.5 -55q-10 -31 -38 -65l-3 -2l-120 135q-70 -33 -75 -111q0 -44 21.5 -73t62.5 -32z "/>
<glyph horiz-adv-x="187" glyph-name="quotesingle" unicode="&apos;" d="M50 519v134q35 0 53.5 -20t18.5 -79v-134q-34 0 -53 20.5t-19 78.5z"/>
<glyph horiz-adv-x="406" glyph-name="parenleft" unicode="(" d="M281 -89q-110 0 -164.5 122t-54.5 334q0 199 51 277.5t168 78.5h86l2 -19v-2q0 -48 -37 -48h-60q-63 -4 -91 -67.5t-28 -219.5q0 -169 30 -276t89 -111h60q37 0 37 -48q0 -21 -2 -21h-86z"/>
<glyph horiz-adv-x="406" glyph-name="parenright" unicode=")" d="M150 -89h-86l-2 19v2q0 48 37 48h60q59 4 89 111t30 276q0 156 -28 219.5t-91 67.5h-60q-37 0 -37 48q0 21 2 21h86q117 0 168 -78.5t51 -277.5q0 -212 -54.5 -334t-164.5 -122z"/>
<glyph horiz-adv-x="354" glyph-name="asterisk" unicode="*" d="M100 395l-7 -1q-22 14 -22 37q0 18 16 37l49 60q-109 31 -122 34q12 52 65 43l68 -21q-1 21 -3 63.5t-2 63.5q54 5 59 -49l5 -76q85 40 115 53q24 -50 -25 -73l-73 -35l94 -94q-19 -21 -39 -21q-19 0 -39 19l-60 61q-13 -17 -39.5 -51t-39.5 -50z"/>
<glyph horiz-adv-x="487" glyph-name="plus" unicode="+" d="M438 200h-155v-103q0 -29 -9 -38.5t-28 -9.5l-36 1v150h-109q-22 0 -34 11.5t-14.5 25t-2.5 36.5h160v114q0 22 11.5 34t25 14.5t36.5 2.5v-165h108q29 0 38.5 -9t9.5 -28z"/>
<glyph horiz-adv-x="164" glyph-name="comma" unicode="," d="M28 85q23 12 42 12q30 0 44 -35t14 -73q0 -41 -28 -74.5t-70 -33.5q-12 0 -21.5 4t-13.5 8l-4 4q67 31 67 86q0 33 -30 102z"/>
<glyph horiz-adv-x="419" glyph-name="hyphen" unicode="-" d="M258 200h-157q-22 0 -34 11.5t-14.5 25t-2.5 36.5h271q29 0 38.5 -9t9.5 -28l-1 -36h-110z"/>
<glyph horiz-adv-x="211" glyph-name="period" unicode="." d="M50 55q0 23 16 39.5t39 16.5t39.5 -16.5t16.5 -39.5t-16.5 -39t-39.5 -16t-39 16t-16 39z"/>
<glyph horiz-adv-x="279" glyph-name="slash" unicode="/" d="M250 548l-192 -625q-37 18 -37 70q0 29 14 80q106 345 190 625q37 -23 37 -74q0 -30 -12 -76z"/>
<glyph horiz-adv-x="595" glyph-name="zero" unicode="0" d="M545 331q0 -154 -69 -249.5t-189 -95.5q-237 0 -237 329q0 148 70 243t189 95q236 0 236 -322zM459 326q0 253 -156 253q-80 0 -124.5 -70.5t-44.5 -186.5q0 -132 38.5 -197t123.5 -65q76 0 119.5 67.5t43.5 198.5z"/>
<glyph horiz-adv-x="486" glyph-name="one" unicode="1" d="M435 81q1 -12 1 -23q0 -58 -38 -58h-348q3 39 22 81h134v491h-90q-23 0 -37.5 18.5t-17.5 34.5t-3 28h235v-578z"/>
<glyph horiz-adv-x="494" glyph-name="two" unicode="2" d="M443 81q1 -12 1 -23q0 -58 -38 -58h-356q4 52 35.5 105t73 97.5t82.5 88t69 93t28 96.5q0 45 -26 78t-81 33q-30 0 -55 -12.5t-39 -29.5t-23.5 -36t-13 -30.5t-3.5 -14.5q-12 42 -12 73q0 66 44 98t115 32q83 0 132 -50t54 -141q0 -44 -32.5 -101.5t-71 -102.5 t-97.5 -110.5t-87 -100.5z"/>
<glyph horiz-adv-x="502" glyph-name="three" unicode="3" d="M50 79q70 -36 145 -36q70 0 120.5 45t50.5 107q0 54 -38 92.5t-95 38.5q-43 0 -93 -27v67q35 10 75 28t80 53.5t40 71.5q0 35 -31.5 58t-70.5 23q-30 0 -54.5 -12t-38 -28.5t-23 -35t-13 -30.5t-3.5 -15q-11 36 -11 71q0 121 155 121q80 0 123.5 -42.5t43.5 -103.5 q0 -46 -32.5 -85t-84.5 -59q77 -6 117 -55.5t40 -123.5q0 -93 -67 -154.5t-166 -61.5q-114 0 -169 93z"/>
<glyph horiz-adv-x="513" glyph-name="four" unicode="4" d="M20 150q10 56 64 154.5t117 201.5t81 147h134q8 -20 8 -83v-24q-1 -24 -1.5 -105.5t-0.5 -211.5h100q1 -5 1 -12q0 -15 -3.5 -28t-17 -26t-36.5 -13h-44v-142q-28 -7 -45 -7q-36 0 -36 26v123h-321zM338 578h-6l-197 -354h203v354z"/>
<glyph horiz-adv-x="503" glyph-name="five" unicode="5" d="M50 90q70 -40 145 -40q78 0 123.5 53t45.5 122q0 58 -33.5 98t-96.5 40q-54 0 -110 -38q-15 -2 -32 -2q-24 0 -34 5l28 325h320q0 -9 -2 -19t-9 -26t-25 -26.5t-45 -10.5l-175 1l-16 -185q65 39 143 39q86 0 131 -56t45 -143q0 -104 -67 -172.5t-166 -68.5 q-115 0 -170 104z"/>
<glyph horiz-adv-x="528" glyph-name="six" unicode="6" d="M196 315q0 2 1.5 9.5t8 20.5t16 24.5t27.5 20t41 8.5q83 0 130.5 -51t47.5 -154q0 -96 -59.5 -151.5t-142.5 -55.5q-221 0 -221 306q0 95 30 179.5t93 142t146 57.5q123 0 184 -116q-80 45 -159 45q-97 0 -151.5 -84.5t-54.5 -239.5q0 -117 32 -171t106 -54q18 0 34.5 5 t35 18t29.5 42.5t11 72.5q0 69 -32 110t-78 41q-29 0 -75 -25z"/>
<glyph horiz-adv-x="502" glyph-name="seven" unicode="7" d="M230 0q-31 4 -50.5 19t-19.5 40q0 17 8 33q23 72 66 192.5t74 205.5l32 84h-197q-41 0 -64 20t-26 40l-3 19h402q-2 -6 -32 -89t-77 -217.5t-83 -248.5q-5 -15 -30 -98z"/>
<glyph horiz-adv-x="500" glyph-name="eight" unicode="8" d="M471 490q0 -105 -108 -158q108 -63 108 -162q0 -90 -54.5 -137t-152.5 -47q-94 0 -148 47t-54 137q0 99 108 162q-108 53 -108 158q0 87 53.5 134t154.5 47q98 0 149.5 -47.5t51.5 -133.5zM267 353q48 19 87.5 56t39.5 81q0 56 -36.5 85t-90.5 29t-91 -29t-37 -85 q0 -44 40 -81t88 -56zM267 50q53 0 88 32.5t35 87.5q0 40 -35 76t-88 58q-54 -22 -89 -58t-35 -76q0 -56 34.5 -88t89.5 -32z"/>
<glyph horiz-adv-x="528" glyph-name="nine" unicode="9" d="M351 342q0 -2 -1.5 -9.5t-8 -20.5t-16 -24.5t-28 -20t-42.5 -8.5q-84 0 -132 51t-48 154q0 96 60.5 151.5t145.5 55.5q223 0 223 -306q0 -95 -30 -179.5t-94 -142t-149 -57.5q-123 0 -186 116q81 -45 161 -45q99 0 154 84.5t55 239.5q0 117 -32 171t-107 54 q-19 0 -35.5 -5t-35.5 -18t-30.5 -42.5t-11.5 -72.5q0 -70 32.5 -110.5t80.5 -40.5q29 0 75 25z"/>
<glyph horiz-adv-x="211" glyph-name="colon" unicode=":" d="M50 145q0 23 16 39.5t39 16.5t39.5 -16.5t16.5 -39.5t-16.5 -39t-39.5 -16t-39 16t-16 39zM50 345q0 23 16 39.5t39 16.5t39.5 -16.5t16.5 -39.5t-16.5 -39t-39.5 -16t-39 16t-16 39z"/>
<glyph horiz-adv-x="164" glyph-name="semicolon" unicode=";" d="M28 85q23 12 42 12q30 0 44 -35t14 -73q0 -41 -28 -74.5t-70 -33.5q-12 0 -21.5 4t-13.5 8l-4 4q67 31 67 86q0 33 -30 102zM5 243q0 23 16 39.5t39 16.5t39.5 -16.5t16.5 -39.5t-16.5 -39t-39.5 -16t-39 16t-16 39z"/>
<glyph horiz-adv-x="398" glyph-name="less" unicode="&lt;" d="M360 101l-329 215v48l329 215q14 -40 14 -43q0 -30 -42 -56q-6 -3 -54 -32t-105.5 -64.5t-71.5 -43.5q185 -111 231 -134q42 -26 42 -56q0 -9 -14 -49z"/>
<glyph horiz-adv-x="538" glyph-name="equal" unicode="=" d="M368 200h-267q-22 0 -34 11.5t-14.5 25t-2.5 36.5h381q29 0 38.5 -9t9.5 -28l-1 -36h-110zM368 350h-267q-22 0 -34 11.5t-14.5 25t-2.5 36.5h381q29 0 38.5 -9t9.5 -28l-1 -36h-110z"/>
<glyph horiz-adv-x="398" glyph-name="greater" unicode="&gt;" d="M374 316l-329 -215q-14 40 -14 49q0 30 42 56q46 23 231 134q-14 8 -71.5 43.5t-105.5 64.5t-54 32q-42 26 -42 56q0 3 14 43l329 -215v-48z"/>
<glyph horiz-adv-x="431" glyph-name="question" unicode="?" d="M12 567l-1 7l-1 1q-3 9 -3 21q0 51 94 51q273 0 273 -181q0 -58 -45.5 -96.5t-106.5 -55.5q-51 -15 -51 -58q2 -22 7 -51t9 -47l4 -18q-23 -8 -48 -8q-39 0 -48 34q-18 67 -18 107q0 25 8.5 43.5t28.5 31.5t33.5 19t41.5 16q24 9 35.5 14.5t27 15.5t22.5 23t7 30 q0 24 -8 41.5t-27.5 27.5t-37 16.5t-53.5 9t-58.5 3t-69.5 0.5h-4q-5 0 -11 3zM101 16q0 23 16 39.5t39 16.5t39.5 -16.5t16.5 -39.5t-16.5 -39t-39.5 -16t-39 16t-16 39z"/>
<glyph horiz-adv-x="674" glyph-name="at" unicode="@" d="M616 56q0 -7 -5.5 -22.5t-23 -39t-44 -43.5t-76 -35t-111.5 -15q-76 0 -132.5 21.5t-89.5 55.5t-52.5 83.5t-26 96t-6.5 102.5q0 46 0.5 74t3.5 67t8 62.5t15 53.5t24 47.5t35.5 36.5t49 29t64 16.5t81.5 6.5q76 0 131 -12.5t86.5 -33t50 -53.5t24 -66.5t5.5 -79.5 q0 -10 -0.5 -29t-1 -64.5t-0.5 -120.5q-117 -84 -237 -84q-190 0 -190 172q0 63 41 101t102.5 51.5t150.5 13.5h13q2 -18 2 -30q0 -31 -31 -32q-76 -2 -136 -26t-60 -74q0 -105 126 -105q69 0 141 49v200q0 77 -46.5 111t-154.5 34q-31 0 -56.5 -2.5t-45.5 -10t-35.5 -14.5 t-27 -23t-19 -27t-12.5 -36.5t-8 -41.5t-4.5 -50.5t-1.5 -56v-65.5q0 -262 224 -262q140 0 256 70z"/>
<glyph horiz-adv-x="497" glyph-name="A" unicode="A" d="M316 583l194 -578q-9 -5 -26 -5q-64 0 -89 76q-1 4 -12.5 37t-19.5 59h-242q-6 -17 -12.5 -39.5t-11 -36.5t-7.5 -22q-22 -74 -91 -74l-14 1l202 652h57q48 0 72 -70zM142 240h200q-19 61 -56.5 175t-44.5 139l-39 -122q-38 -123 -60 -192z"/>
<glyph horiz-adv-x="510" glyph-name="B" unicode="B" d="M278 0l-228 9v635l228 8q97 0 140.5 -38t43.5 -131q0 -122 -57 -172q72 -40 75 -134v-14q-2 -90 -49.5 -126.5t-152.5 -36.5zM243 338q73 0 107.5 34t34.5 108q0 53 -25 77t-89 24l-143 -8v-492l143 -9q75 0 103 22.5t28 91.5q0 66 -60 93q-32 -10 -58 -10q-43 0 -79 24 t-40 66q26 -21 78 -21z"/>
<glyph horiz-adv-x="559" glyph-name="C" unicode="C" d="M307 64q57 0 112 19.5t82 38.5l27 20q0 -72 -62 -116t-150 -44q-72 0 -127.5 28.5t-87 77.5t-47.5 107t-16 124q0 64 16 121.5t47.5 106.5t87 77.5t127.5 28.5q88 0 150 -44t62 -116q-4 3 -11 8.5t-30 19t-47 23.5t-60.5 18.5t-72.5 8.5q-49 0 -85.5 -21t-56.5 -58 t-29 -80.5t-9 -94.5q0 -70 15.5 -124t57.5 -91.5t107 -37.5z"/>
<glyph horiz-adv-x="595" glyph-name="D" unicode="D" d="M132 83l97 -11q126 0 180 57t54 198q0 140 -54 197t-180 57l-97 -9v-489zM229 0l-179 13v631l179 9q169 0 242.5 -72.5t73.5 -253.5q0 -182 -73.5 -254.5t-242.5 -72.5z"/>
<glyph horiz-adv-x="444" glyph-name="E" unicode="E" d="M146 289v-212h265q0 -22 -2 -32.5t-10.5 -22.5t-29.5 -17t-56 -5h-253v653h350q0 -77 -97 -77h-167v-208h232q4 -22 4 -33q0 -22 -15 -34t-54 -12h-167z"/>
<glyph horiz-adv-x="427" glyph-name="F" unicode="F" d="M63 99l1 554h350q0 -77 -97 -77h-167v-208h232q4 -22 4 -33q0 -22 -15 -34t-54 -12h-165v-289q-21 4 -31 7t-26.5 12.5t-24 29.5t-7.5 50z"/>
<glyph horiz-adv-x="577" glyph-name="G" unicode="G" d="M306 571q-95 0 -137.5 -72.5t-42.5 -182.5q0 -19 2.5 -40t9 -52t21 -57.5t35.5 -51t55.5 -38.5t77.5 -14q72 0 111 36v242q19 0 29.5 -2t24.5 -11t21 -32t7 -61v-179q-77 -72 -198 -72q-54 0 -99 14.5t-73.5 37.5t-50.5 55t-33.5 62t-18.5 64t-8.5 56t-1.5 43 q0 52 9.5 99.5t31 91t53 76t79 51.5t105.5 19q88 0 150 -44t62 -116q-4 3 -11 8.5t-30 19t-47 23.5t-60.5 18.5t-72.5 8.5z"/>
<glyph horiz-adv-x="559" glyph-name="H" unicode="H" d="M417 100v190h-275v-290q-92 0 -92 99v554q92 0 92 -99v-191h275v290q92 0 92 -98v-555q-37 0 -64.5 21.5t-27.5 78.5z"/>
<glyph horiz-adv-x="192" glyph-name="I" unicode="I" d="M50 99v554q92 0 92 -99v-554q-92 0 -92 99z"/>
<glyph horiz-adv-x="362" glyph-name="J" unicode="J" d="M312 553v-418q0 -22 -2 -39.5t-10.5 -39t-23 -36t-41.5 -24.5t-64 -10q-38 0 -64.5 11.5t-37.5 30.5t-15 34.5t-4 32.5l1 19q5 -7 13.5 -17.5t36.5 -28t58 -17.5q70 0 70 109v493q18 0 28 -2t25 -10t22.5 -30.5t7.5 -57.5z"/>
<glyph horiz-adv-x="510" glyph-name="K" unicode="K" d="M191 325q61 0 105.5 24.5t69.5 67.5t36.5 93.5t11.5 110.5l-2 34q65 -42 65 -126q0 -79 -36.5 -148.5t-103.5 -108.5q13 -21 72.5 -99.5t123.5 -172.5q-61 0 -90 15.5t-49 47.5l-132 182q-20 -4 -78 -4q-26 0 -46 4v-245q-88 5 -88 95v558q88 0 88 -82v-239q25 -7 53 -7z "/>
<glyph horiz-adv-x="382" glyph-name="L" unicode="L" d="M381 80q0 -10 -2.5 -20.5t-10.5 -25.5t-27 -24.5t-48 -9.5h-243v653q93 0 93 -99v-474h238z"/>
<glyph horiz-adv-x="673" glyph-name="M" unicode="M" d="M282 51l-150 416v-398q-1 -25 -6.5 -39.5t-17.5 -21t-22 -7.5t-33 -1v653h7q53 0 74.5 -17t39.5 -69q124 -355 164 -461l179 505q15 27 38.5 34.5t60.5 7.5h7v-653q-23 0 -33 1t-22.5 7.5t-17.5 21t-6 40.5v400q-1 -2 -103 -284q-31 -92 -47 -135l-18 -51h-42 q-17 0 -30 12.5t-18 25.5z"/>
<glyph horiz-adv-x="548" glyph-name="N" unicode="N" d="M50 89v564q27 0 41.5 -1.5t35 -11.5t31.5 -29q251 -447 254 -454v495q4 1 8 1q78 0 78 -64v-589q-26 0 -41 1.5t-36 11t-32 28.5q-254 444 -256 448v-489q-27 0 -38 1.5t-23.5 9.5t-17 26.5t-4.5 51.5z"/>
<glyph horiz-adv-x="569" glyph-name="O" unicode="O" d="M297 653q68 0 119 -28t76.5 -65.5t41 -88.5t19 -84.5t3.5 -65.5t-3.5 -65.5t-19 -85t-42 -89.5t-78 -66.5t-121.5 -28.5q-57 0 -102.5 19t-72.5 51.5t-45 67.5t-26 76.5t-11 68.5t-3 52q0 21 1.5 43t8 56.5t17 64.5t31 61.5t47.5 54.5t68 37.5t92 14.5zM297 65 q46 0 81 21.5t52.5 50.5t28.5 68t13.5 65.5t2.5 50.5t-2.5 50.5t-13.5 66t-28.5 69t-52.5 51t-81 21.5q-48 0 -84 -21.5t-54 -51t-29.5 -69t-14 -65.5t-2.5 -51q0 -23 3 -50.5t14.5 -65.5t30.5 -67.5t54.5 -51t81.5 -21.5z"/>
<glyph horiz-adv-x="535" glyph-name="P" unicode="P" d="M323 272q55 0 79.5 40.5t24.5 101.5q0 88 -30.5 126t-101.5 38l-157 -5v-573q-46 3 -62 16q-26 22 -26 79v550l250 8q108 0 156.5 -53.5t48.5 -185.5q0 -218 -182 -218q-57 0 -100.5 31.5t-43.5 80.5q0 14 2 21q4 -6 12.5 -15.5t45 -25.5t84.5 -16z"/>
<glyph horiz-adv-x="574" glyph-name="Q" unicode="Q" d="M495 -130q57 0 112 19.5t82 38.5l27 20q0 -72 -62 -116t-150 -44q-103 0 -167.5 55t-91.5 145q-50 5 -89 27t-62.5 54t-39.5 66t-23 73t-9.5 64t-2.5 49q0 21 1.5 43t8 56.5t17 64.5t31 61.5t47.5 54.5t68 37.5t92 14.5q68 0 119 -28t76.5 -65.5t41 -88.5t19 -84.5 t3.5 -65.5q0 -29 -3 -59t-15.5 -77t-33.5 -84t-62 -68.5t-96 -41.5q41 -121 162 -121zM284 65q46 0 81 21.5t52.5 50.5t28.5 68t13.5 65.5t2.5 50.5t-2.5 50.5t-13.5 66t-28.5 69t-52.5 51t-81 21.5q-48 0 -84 -21.5t-54 -51t-29.5 -69t-14 -65.5t-2.5 -51q0 -23 3 -50.5 t14.5 -65.5t30.5 -67.5t54.5 -51t81.5 -21.5z"/>
<glyph horiz-adv-x="535" glyph-name="R" unicode="R" d="M317 276q55 0 82.5 43.5t27.5 104.5q0 87 -30 120.5t-102 33.5l-157 -5v-573q-46 3 -62 16q-26 22 -26 79v550l250 8q110 0 157.5 -49t47.5 -180q0 -200 -138 -224l136 -200q-61 0 -89.5 15.5t-49.5 47.5l-90 139q-42 12 -68.5 40t-26.5 66q0 14 2 21q1 -2 3.5 -5.5 t13.5 -13t25 -16.5t39 -12.5t55 -5.5z"/>
<glyph horiz-adv-x="491" glyph-name="S" unicode="S" d="M132 472q0 -26 20 -49q29 -33 130 -75q37 -16 60 -28.5t48.5 -33.5t38 -50.5t12.5 -68.5q0 -80 -43.5 -130.5t-141.5 -50.5q-79 0 -135 30t-56 81q0 27 25 48q21 -32 69 -54.5t94 -22.5t74 24t28 75q0 17 -10 33t-21 27t-37.5 25t-40 20.5t-48.5 21.5q-34 15 -54 26.5 t-45 32.5t-37 50.5t-12 68.5q0 80 43.5 130.5t141.5 50.5q79 0 135 -30t56 -81q0 -27 -25 -48q-21 32 -69 54.5t-94 22.5t-76 -24t-30 -75z"/>
<glyph horiz-adv-x="405" glyph-name="T" unicode="T" d="M431 653q0 -84 -60 -84h-123v-569q-18 3 -25.5 5t-23 8.5t-23 16t-14 27.5t-6.5 42v470h-173q-2 4 -2 15q0 15 5 29t25 27t53 13h367z"/>
<glyph horiz-adv-x="526" glyph-name="U" unicode="U" d="M482 553v-337q0 -216 -206 -216q-63 0 -108.5 18t-67.5 41t-34 60t-14 59t-2 54v421q17 -3 23.5 -4.5t21.5 -8.5t22 -16.5t13 -27.5t6 -42v-320q0 -14 1.5 -28t9 -38.5t20.5 -42.5t39.5 -31.5t62.5 -13.5q41 0 69 16t39.5 42.5t15.5 46t4 38.5v430q21 -4 32.5 -8 t25.5 -13.5t20.5 -29t6.5 -49.5z"/>
<glyph horiz-adv-x="526" glyph-name="V" unicode="V" d="M258 124l181 529h67q28 0 28 -12q0 -3 -1 -5t-3 -7q-39 -105 -222 -602l-9 -27h-62q-10 0 -16 3t-7 7l-1 3l-227 640h69q32 0 38 -22l12 -36q52 -158 153 -471z"/>
<glyph horiz-adv-x="761" glyph-name="W" unicode="W" d="M24 647q16 6 33 6q48 0 57 -53l93 -519l141 569q11 3 27 3q62 0 80 -66l126 -500l101 564q8 2 20 2q53 0 53 -51q0 -5 -2 -19q-6 -40 -36 -187.5t-57 -275.5l-27 -127q-15 -7 -37 -7q-65 0 -86 78l-115 415l-133 -486q-18 -7 -39 -7q-65 0 -83 77q-12 49 -41 195t-52 268 z"/>
<glyph horiz-adv-x="563" glyph-name="X" unicode="X" d="M281 397l107 191q3 7 9 17t27 26.5t45 16.5q22 0 43 -12l-181 -310l182 -316q-18 -7 -41 -7q-38 0 -63 24q-13 13 -20 25l-107 201l-1 -3l-107 -201q-8 -13 -20 -25q-25 -24 -63 -24q-10 0 -20.5 2t-15.5 4l-5 1l182 316l-181 310q21 12 43 12q24 0 44 -15t28 -30l9 -15z "/>
<glyph horiz-adv-x="460" glyph-name="Y" unicode="Y" d="M195 255l-197 391q19 7 38 7q56 0 82 -50q16 -31 45.5 -93.5t50.5 -109.5l22 -47l70 147q6 13 31 67.5t40 84.5q71 0 71 -41q0 -13 -5 -23q-13 -30 -54 -113.5t-75 -152.5l-35 -68v-253q-5 -1 -17 -1q-67 0 -67 85v170z"/>
<glyph horiz-adv-x="489" glyph-name="Z" unicode="Z" d="M40 653h375q22 0 35.5 -4t19 -13t7 -16.5t1.5 -19.5q0 -14 -9.5 -30t-56.5 -83q-135 -193 -283 -415h325q0 -72 -61 -72h-362q-4 17 -4 39q0 18 4.5 34.5t8.5 24.5l4 8l322 463h-224q-33 0 -55.5 9.5t-31.5 24.5t-12 26.5t-3 23.5z"/>
<glyph horiz-adv-x="341" glyph-name="bracketleft" unicode="[" d="M291 573l-149 -1v-586h145v-22q0 -35 -19 -46t-66 -11h-152v746h153q58 0 73 -16t15 -64z"/>
<glyph horiz-adv-x="279" glyph-name="backslash" unicode="\" d="M225 -77l-192 625q-12 46 -12 76q0 51 37 74q84 -280 190 -625q14 -51 14 -80q0 -52 -37 -70z"/>
<glyph horiz-adv-x="341" glyph-name="bracketright" unicode="]" d="M199 572l-149 1q0 48 15 64t73 16h153v-746h-152q-47 0 -66 11t-19 46v22h145v586z"/>
<glyph horiz-adv-x="386" glyph-name="asciicircum" unicode="^" d="M210 720l85 -90q27 -27 27 -53q0 -23 -22 -41l-112 133h-9q-91 -105 -116 -133q-21 14 -21 41t26 53l116 120z"/>
<glyph horiz-adv-x="454" glyph-name="underscore" unicode="_" d="M318 0h-237q-22 0 -34 11.5t-14.5 25t-2.5 36.5h351q29 0 38.5 -9t9.5 -28l-1 -36h-110z"/>
<glyph horiz-adv-x="276" glyph-name="grave" unicode="`" d="M82 787l117 -145q27 -34 27 -64q0 -32 -20 -45l-116 145q-26 32 -26 64q0 27 18 45z"/>
<glyph horiz-adv-x="476" glyph-name="a" unicode="a" d="M51 354q0 80 42.5 118.5t130.5 38.5t145 -56.5t57 -156.5v-227q-101 -85 -204 -85q-73 0 -118.5 41t-45.5 121q0 37 16 65t40.5 44t58.5 25.5t63.5 12.5t62.5 3q42 0 57 -1q0 60 -35.5 98t-110.5 38q-22 0 -43 -4.5t-36.5 -11.5t-29.5 -16t-23 -17.5t-15.5 -16 t-8.5 -10.5zM356 107v128q-12 1 -34 1q-184 0 -184 -96q0 -26 11 -43.5t29 -25t32 -10.5t27 -3q62 0 119 49z"/>
<glyph horiz-adv-x="483" glyph-name="b" unicode="b" d="M234 -14q-96 0 -184 76v630q37 0 59 -21.5t22 -82.5v-114q58 33 120 33q93 0 147 -63t54 -179q0 -140 -51 -209.5t-167 -69.5zM131 101q50 -43 104 -43q79 0 107 48.5t28 147.5q0 88 -36.5 133.5t-95.5 45.5q-49 0 -107 -33v-299z"/>
<glyph horiz-adv-x="469" glyph-name="c" unicode="c" d="M252 -14q-105 0 -162 76t-57 181q0 268 219 268q67 0 117 -37.5t50 -96.5q0 -13 -3 -26q-2 3 -5.5 8t-17.5 18.5t-31.5 23.5t-48.5 18t-67 8q-72 0 -103 -51t-31 -129q0 -72 35.5 -124.5t98.5 -52.5q36 0 66.5 8t49 19t31.5 22t18 19l5 8q3 -13 3 -26q0 -59 -50 -96.5 t-117 -37.5z"/>
<glyph horiz-adv-x="489" glyph-name="d" unicode="d" d="M358 474v218q38 0 59.5 -22t21.5 -86v-522q-88 -76 -184 -76q-116 0 -167 69.5t-51 209.5q0 116 54 179t147 63q62 0 120 -33zM358 400q-58 33 -107 33q-59 0 -95.5 -45.5t-36.5 -133.5q0 -99 28 -147.5t107 -48.5q54 0 104 43v299z"/>
<glyph horiz-adv-x="469" glyph-name="e" unicode="e" d="M232 511q98 0 142 -66t44 -166q0 -28 -3 -53h-303q4 -62 38 -109t96 -47q36 0 66.5 8t49 19t31.5 22t18 19l5 8q3 -13 3 -26q0 -59 -50 -96.5t-117 -37.5q-53 0 -93.5 18.5t-64 46.5t-38 66.5t-19.5 72t-5 69.5q0 252 200 252zM115 297h224q-3 138 -112 138 q-104 0 -112 -138z"/>
<glyph horiz-adv-x="381" glyph-name="f" unicode="f" d="M52 461h62v85q0 30 4.5 53.5t18.5 49.5t45.5 40.5t79.5 14.5q40 0 68 -12t39.5 -32t16 -36.5t4.5 -34.5l-1 -20q-5 7 -14 18t-38.5 29.5t-61.5 18.5q-74 0 -74 -114v-62h69q19 0 31.5 -8.5t17 -22t6 -21.5t1.5 -15h-124v-392q-2 0 -18.5 2.5t-21 4.5t-17 9t-17.5 17 t-9.5 29t-4.5 44v286q-36 0 -50 17t-14 38q0 12 2 14z"/>
<glyph horiz-adv-x="453" glyph-name="g" unicode="g" d="M225 -14q-105 0 -162 76t-57 181q0 268 206 268h13l25 -1q42 -4 86.5 -19.5t66.5 -38.5v-403q0 -36 -5 -69.5t-19.5 -72t-38 -66.5t-64 -46.5t-93.5 -18.5q-67 0 -117 37.5t-50 96.5q0 12 3 26q2 -3 5.5 -8t17.5 -18.5t31.5 -23.5t48.5 -18t67 -8q64 0 101.5 43.5 t36.5 110.5q-41 -28 -102 -28zM328 96l1 307q-46 24 -110 24q-72 0 -103 -51t-31 -129q0 -72 35.5 -124.5t98.5 -52.5q59 0 103 21q2 1 6 5z"/>
<glyph horiz-adv-x="477" glyph-name="h" unicode="h" d="M50 106v590q82 0 82 -106v-150h7q23 74 115 74q48 0 83 -17t51.5 -38t26 -52.5t11 -48.5t1.5 -37v-321q-82 0 -82 106v212q0 18 -3.5 34t-12.5 35.5t-30 31.5t-52 12q-29 0 -51 -10t-34 -24t-19.5 -32t-9.5 -30.5t-2 -23.5v-311q-81 0 -81 106z"/>
<glyph horiz-adv-x="199" glyph-name="i" unicode="i" d="M144 0q-4 1 -16 2.5t-16.5 3t-14.5 5.5t-15 11t-10.5 17.5t-8 27.5t-2.5 39v405q19 0 29.5 -2t25 -11t21.5 -32t7 -61v-405zM50 611q0 21 14 35.5t35 14.5t35.5 -14.5t14.5 -35.5t-14.5 -35t-35.5 -14t-35 14t-14 35z"/>
<glyph horiz-adv-x="227" glyph-name="j" unicode="j" d="M78 611q0 21 14 35.5t35 14.5t35.5 -14.5t14.5 -35.5t-14.5 -35t-35.5 -14t-35 14t-14 35zM172 411v-486q0 -22 -2 -39.5t-10.5 -39t-23 -36t-41.5 -24.5t-64 -10q-38 0 -64.5 11.5t-37.5 30.5t-15 34.5t-4 32.5l1 19q5 -7 13.5 -17.5t36.5 -28t58 -17.5q70 0 70 109v561 q18 0 28 -2t25 -10t22.5 -30.5t7.5 -57.5z"/>
<glyph horiz-adv-x="401" glyph-name="k" unicode="k" d="M391 359q0 -54 -28 -99.5t-77 -71.5l128 -188q-60 0 -85 13t-42 45l-73 111q-7 -1 -23 -1q-23 0 -58 7v-175q-83 0 -83 98v604q83 0 83 -98v-354q29 -8 53 -8q65 0 100 44t35 110q0 26 -7 48.5t-14 31.5l-7 10q4 0 25 -6q35 -13 54 -46t19 -75z"/>
<glyph horiz-adv-x="289" glyph-name="l" unicode="l" d="M50 120v19t0.5 49.5t1 91.5t1 165.5t1.5 250.5q20 -4 30 -7.5t26 -14t23 -32t7 -54.5v-471q0 -64 55 -64q17 0 44 6q-7 -73 -98 -73q-29 0 -49 15t-28 39.5t-11 43t-3 36.5z"/>
<glyph horiz-adv-x="743" glyph-name="m" unicode="m" d="M50 106v289q1 5 4 12.5t17 27.5t33 35.5t54.5 28t79.5 12.5q48 0 82 -23.5t45 -53.5h12q17 29 57.5 53t84.5 24q45 0 78.5 -14.5t51 -35t28 -48.5t13.5 -49.5t3 -43.5v-320q-82 0 -82 106v210q0 28 -6 51.5t-28.5 44.5t-59.5 21q-21 0 -40 -5.5t-30.5 -12.5t-20 -15.5 t-12 -14t-3.5 -7.5v-378q-81 0 -81 106v210q0 28 -6 51.5t-28.5 44.5t-59.5 21q-34 0 -60 -13t-36 -25.5t-9 -16.5v-378q-81 0 -81 106z"/>
<glyph horiz-adv-x="494" glyph-name="n" unicode="n" d="M50 106v290q1 5 4.5 12.5t18.5 27.5t35.5 35.5t59.5 28t87 12.5q49 0 85.5 -14.5t55.5 -34.5t30 -48.5t14 -49.5t3 -44q0 -4 0.5 -92t0.5 -229q-20 4 -30.5 7.5t-26.5 13.5t-23.5 31t-7.5 53v212q0 28 -6.5 51.5t-31 44.5t-65.5 21q-23 0 -43.5 -5.5t-33.5 -12.5 t-22 -15.5t-13 -14t-4 -7.5v-379q-20 4 -30.5 7.5t-26 13.5t-23 31.5t-7.5 53.5z"/>
<glyph d="M28 262q0 29 3.5 57t16.5 64.5t34.5 63.5t61.5 45.5t94 18.5t94 -18.5t61.5 -45.5t34.5 -63.5t16.5 -64.5t3.5 -57q0 -75 -18.5 -134.5t-67.5 -100.5t-124 -41t-124 41t-67.5 100.5t-18.5 134.5zM116 259q0 -84 30 -139.5t95 -55.5t95 55.5t30 139.5q0 27 -4 52.5 t-16 56.5t-39 49.5t-66 18.5t-66 -18.5t-39 -49.5t-16 -56.5t-4 -52.5z" glyph-name="o" unicode="o"/>
<glyph horiz-adv-x="507" glyph-name="p" unicode="p" d="M132 -226q-16 0 -28 3.5t-25.5 13t-21 32.5t-7.5 57v572q72 59 197 59q61 0 104 -23t65 -63t31.5 -84.5t9.5 -97.5q0 -105 -59 -181t-164 -76q-58 0 -102 28v-240zM128 405l1 -313q43 -26 111 -26q66 0 102 53.5t36 127.5q0 79 -32 131.5t-106 52.5q-65 0 -112 -26z"/>
<glyph horiz-adv-x="507" glyph-name="q" unicode="q" d="M457 452v-678q-16 0 -28 3.5t-25.5 13t-21 32.5t-7.5 57v134q-44 -28 -102 -28q-105 0 -164 76t-59 181q0 53 9.5 97.5t31.5 84.5t65 63t104 23q125 0 197 -59zM378 92l1 313q-47 26 -112 26q-74 0 -106 -52.5t-32 -131.5q0 -74 36 -127.5t102 -53.5q68 0 111 26z"/>
<glyph horiz-adv-x="386" glyph-name="r" unicode="r" d="M396 361l-5 5q-5 5 -17 15t-27.5 19t-38.5 16t-47 7q-48 0 -83.5 -20t-44.5 -52v-348q-15 -3 -25 -3q-35 0 -46 30t-11 87l-1 394q8 0 20.5 -2.5t35 -22.5t26.5 -56q43 73 126 73q138 0 138 -142z"/>
<glyph horiz-adv-x="447" glyph-name="s" unicode="s" d="M130 367q0 -17 16 -35q24 -25 111 -58q33 -12 53 -22t43 -27t33.5 -40.5t10.5 -54.5q0 -64 -38.5 -104t-125.5 -40q-70 0 -119.5 24t-49.5 66q0 22 26 42q18 -24 59.5 -42t80.5 -18q38 0 61.5 17.5t23.5 54.5q0 21 -22 39.5t-43.5 28.5t-66.5 27q-31 12 -48.5 21t-40 26 t-33.5 40.5t-11 54.5q0 64 38.5 104t126.5 40q70 0 119.5 -24t49.5 -66q0 -24 -27 -42q-17 25 -58.5 42.5t-81.5 17.5q-38 0 -62.5 -17.5t-24.5 -54.5z"/>
<glyph horiz-adv-x="432" glyph-name="t" unicode="t" d="M106 149l3 278h-73q-22 0 -34.5 16.5t-14.5 30t-2 26.5h125v153q3 -1 18 -3t20 -3.5t16.5 -8t16 -15t9 -25t4.5 -38.5v-60h140q29 0 38.5 -9t9.5 -28l-1 -36h-188v-253q0 -60 15 -83t59 -23q31 0 59 15t40 30l13 15q1 -6 1 -17q0 -17 -4.5 -34.5t-16 -40t-38.5 -36.5 t-67 -14q-148 0 -148 163z"/>
<glyph horiz-adv-x="494" glyph-name="u" unicode="u" d="M444 406v-290q-1 -5 -4.5 -12.5t-18.5 -27.5t-35.5 -35.5t-59.5 -28t-87 -12.5q-49 0 -85.5 14.5t-55.5 34.5t-30 48.5t-14 49.5t-3 44q0 4 -0.5 92t-0.5 229q20 -4 30.5 -7.5t26.5 -13.5t23.5 -31t7.5 -53v-212q0 -28 6.5 -51.5t31 -44.5t65.5 -21q23 0 43.5 5.5 t33.5 12.5t22 15.5t13 14t4 7.5v379q20 -4 30.5 -7.5t26 -13.5t23 -31.5t7.5 -53.5z"/>
<glyph horiz-adv-x="447" glyph-name="v" unicode="v" d="M212 115l145 386h60q28 0 28 -14q0 -8 -8 -26q-17 -38 -187 -461h-56q-8 0 -14 3t-8 7l-1 3q-22 57 -89.5 228t-101.5 260h65q13 0 22 -6.5t13 -13.5t9 -21q0 -3 1 -4q30 -78 122 -341z"/>
<glyph horiz-adv-x="704" glyph-name="w" unicode="w" d="M50 501q7 10 31 10q43 0 52 -43l72 -368q1 4 109 408q14 3 26 3q55 0 69 -53l98 -354q13 71 39.5 205t38.5 201q7 1 21 1q48 0 48 -43q0 -34 -27 -149t-52 -212.5t-21 -99.5q-15 -7 -34 -7q-56 0 -75 63q-8 27 -23 83.5t-29 107.5t-25.5 95t-11.5 45l-104 -387 q-18 -7 -35 -7q-58 0 -73 62q-10 40 -33.5 149.5t-42.5 199.5z"/>
<glyph horiz-adv-x="403" glyph-name="x" unicode="x" d="M201 313l99 151q3 5 8.5 13t24.5 21t41 13q21 0 40 -9l-167 -245l169 -251q-17 -6 -38 -6q-35 0 -58 19q-15 15 -118 181l-1 -3q-107 -171 -117 -178q-23 -19 -58 -19q-9 0 -18.5 1.5t-13.5 2.5l-5 2l167 249l-166 244q20 10 39 10q22 0 40.5 -12t26.5 -24l8 -12z"/>
<glyph horiz-adv-x="486" glyph-name="y" unicode="y" d="M364 26q-49 -26 -107 -26q-49 0 -85.5 14.5t-55.5 34.5t-30 48.5t-14 49.5t-3 44q0 4 -0.5 91.5t-0.5 228.5q88 0 88 -105v-211q0 -28 6.5 -51.5t31 -44.5t65.5 -21q98 0 98 54v379q87 0 87 -106v-356q0 -36 -5 -69.5t-19.5 -72t-38 -66.5t-64 -46.5t-93.5 -18.5 q-67 0 -117 37.5t-50 96.5q0 12 3 26q2 -3 5.5 -8t17.5 -18.5t31.5 -23.5t48.5 -18t67 -8q62 0 96 49t38 117z"/>
<glyph horiz-adv-x="416" glyph-name="z" unicode="z" d="M47 500h293q19 0 30.5 -3.5t16 -11t5.5 -13.5t1 -16q0 -12 -8 -25.5t-45 -63.5q-81 -113 -210 -303h245q0 -64 -51 -64h-283q-4 17 -4 34q0 14 3.5 27.5t7.5 19.5l4 6l241 340h-162q-27 0 -45.5 8t-26 21t-10 23t-2.5 21z"/>
<glyph horiz-adv-x="391" glyph-name="braceleft" unicode="{" d="M125 419v163q0 13 3 26.5t12.5 36t36 37t65.5 14.5h126q2 -14 2 -21q0 -65 -48 -65h-75q-44 0 -44 -47v-169q0 -67 -39 -84q20 -13 29.5 -41t9.5 -46v-166q0 -47 44 -47h75q48 0 48 -65l-2 -21h-126q-39 0 -65.5 14.5t-36 37t-12.5 37t-3 27.5v161q0 31 -24 52.5 t-48 26.5l-24 6v48q4 1 10.5 2t23 7.5t29 15t23 24.5t10.5 36z"/>
<glyph horiz-adv-x="171" glyph-name="bar" unicode="|" d="M50 -21v771q75 0 75 -99v-771q-75 0 -75 99z"/>
<glyph horiz-adv-x="391" glyph-name="braceright" unicode="}" d="M274 582v-163q0 -31 24 -52.5t48 -26.5l24 -6v-48q-4 -1 -10.5 -2t-23 -7.5t-29 -15t-23 -24.5t-10.5 -36v-161q0 -13 -3 -27.5t-12.5 -37t-36 -37t-65.5 -14.5h-126q-2 13 -2 21q0 65 48 65h75q44 0 44 47v166q0 18 9.5 46t29.5 41q-39 17 -39 84v169q0 47 -44 47h-75 q-48 0 -48 65l2 21h126q39 0 65.5 -14.5t36 -37t12.5 -36t3 -26.5z"/>
<glyph d="M373 683q57 0 57 -49q0 -29 -28.5 -54t-68.5 -25q-41 0 -106.5 29t-90.5 29q-32 0 -43 -56q-14 -4 -26 -4q-40 0 -40 30q0 43 30 71.5t74 28.5q36 0 96.5 -30t93.5 -30q40 0 52 60z" glyph-name="asciitilde" unicode="~"/>
<glyph horiz-adv-x="229" glyph-name="exclamdown" unicode="¡" d="M182 407v-426q-81 0 -81 94v426q81 0 81 -94zM182 598q0 -23 -16 -39.5t-39 -16.5t-39.5 16.5t-16.5 39.5t16.5 39t39.5 16t39 -16t16 -39z"/>
<glyph horiz-adv-x="486" glyph-name="cent" unicode="¢" d="M225 39v31q-84 16 -129.5 88t-45.5 165q0 239 175 265v132q75 0 75 -99v-33q57 -9 96.5 -44.5t39.5 -86.5q0 -13 -3 -26q-1 2 -4 6.5t-14.5 15.5t-25.5 20.5t-38 18.5t-51 13v-353q44 5 77 23.5t45 34.5l11 16q3 -13 3 -26q0 -51 -39.5 -86.5t-96.5 -44.5v-129 q-75 0 -75 99zM129 327q0 -60 25 -108t71 -63v346q-96 -26 -96 -175z"/>
<glyph horiz-adv-x="502" glyph-name="sterling" unicode="£" d="M-14 -1q0 1 2.5 16t4 19t7.5 15.5t15.5 15.5t26 8.5t39.5 4.5q43 66 43 140q0 24 -7 44h-133q0 11 5 24.5t26.5 29t56.5 15.5h16q-47 65 -47 145q0 79 48.5 135t132.5 56q71 0 115 -32t44 -98q0 -31 -12 -73q0 3 -3.5 14.5t-13 30.5t-23.5 36t-39 29.5t-55 12.5 q-55 0 -81 -33t-26 -78q0 -69 59 -145h206q0 -11 -5 -24.5t-26.5 -29t-56.5 -15.5h-95q4 -21 6 -44q0 -70 -45 -145h135q115 0 117 61v5q0 26 -16.5 50.5t-32.5 35.5l-17 11h21q19 0 36 -4t37.5 -14.5t33 -33t12.5 -55.5v-7q-5 -124 -147 -124q-19 0 -28 1h-336z"/>
<glyph d="M127 214q-22 0 -34 8t-14.5 17t-2.5 25h114l-192 382q19 7 38 7q56 0 82 -50q46 -89 118 -250l70 147q6 13 31 67.5t40 84.5q71 0 71 -41q0 -13 -5 -23q-27 -60 -159 -324h62q29 0 38.5 -6t9.5 -19l-1 -25h-114v-40h67q29 0 38.5 -6t9.5 -19l-1 -25h-114v-123 q-5 -1 -17 -1q-67 0 -67 85v39h-68q-22 0 -34 8t-14.5 17t-2.5 25h119v40h-68z" glyph-name="yen" unicode="¥"/>
<glyph horiz-adv-x="401" glyph-name="section" unicode="§" d="M120 591q0 -14 10 -30q21 -20 60 -38t68.5 -30t52.5 -41.5t23 -74.5q0 -78 -57 -117q57 -37 57 -104q0 -61 -32 -98.5t-106 -37.5q-59 0 -101 24t-42 63q0 21 27 48q17 -24 51 -41t63 -17q27 0 44.5 14.5t17.5 44.5q0 15 -17.5 30.5t-36 25t-50.5 23.5q-110 48 -110 134 q0 34 15 65.5t41 50.5q-56 38 -56 106q0 60 32 97.5t107 37.5q60 0 101 -23.5t41 -63.5q0 -26 -28 -47q-17 24 -49.5 40.5t-62.5 16.5q-27 0 -45 -14t-18 -44zM120 369q0 -25 23 -38.5t51 -13.5q26 0 44 15t18 45q0 24 -23 37.5t-50 13.5t-45 -14.5t-18 -44.5z"/>
<glyph horiz-adv-x="334" glyph-name="dieresis" unicode="¨" d="M52 745q0 17 12 29.5t29 12.5t29.5 -12.5t12.5 -29.5t-12.5 -29t-29.5 -12t-29 12t-12 29zM195 745q0 17 12 29.5t29 12.5t29.5 -12.5t12.5 -29.5t-12.5 -29t-29.5 -12t-29 12t-12 29z"/>
<glyph horiz-adv-x="584" glyph-name="copyright" unicode="©" d="M303 589q51 0 92 -13t68 -33t47 -48.5t30.5 -54.5t17 -56.5t8 -50t1.5 -38.5q0 -18 -1.5 -37.5t-8 -50t-17 -57t-31 -55t-48 -49t-69.5 -33.5t-94 -13q-70 0 -122 25t-78.5 59t-42.5 79t-19.5 74.5t-3.5 57.5q0 23 3 46.5t11 60t27 67t47 59t75.5 45t107.5 16.5zM303 69 q47 0 82.5 19t53.5 45t29 60.5t13.5 57.5t2.5 44q0 17 -2 36t-8 47t-18.5 52t-31.5 45.5t-50 34.5t-71 13q-49 0 -85.5 -19t-55.5 -45t-30.5 -61t-14 -58t-2.5 -45q0 -20 3 -44t15 -58t31 -60t55 -45t84 -19zM305 147q-61 0 -94 44t-33 105q0 156 127 156q39 0 68 -22 t29 -56q0 -5 -2 -15q-3 5 -9 12.5t-31 19.5t-58 12q-78 0 -78 -105q0 -41 20.5 -71.5t57.5 -30.5q33 0 57.5 11t32.5 22l8 11q2 -10 2 -15q0 -34 -29 -56t-68 -22z"/>
<glyph horiz-adv-x="427" glyph-name="ordfeminine" unicode="ª" d="M67 546q0 55 28.5 81t88.5 26t98.5 -38.5t38.5 -106.5v-154q-68 -57 -138 -57q-50 0 -81 27.5t-31 81.5q0 102 164 102q29 0 39 -1q0 42 -24 67.5t-75 25.5q-65 0 -105 -50q-2 -3 -3 -4zM274 379v86q-8 1 -23 1q-125 0 -125 -65q0 -23 14 -36.5t27 -16.5t26 -3 q42 0 81 34z"/>
<glyph horiz-adv-x="487" glyph-name="uni00AD" unicode="­" d="M258 200h-157q-22 0 -34 11.5t-14.5 25t-2.5 36.5h341q29 0 38.5 -9t9.5 -28l-1 -36h-180z"/>
<glyph horiz-adv-x="584" glyph-name="registered" unicode="®" d="M303 589q51 0 92 -13t68 -33t47 -48.5t30.5 -54.5t17 -56.5t8 -50t1.5 -38.5q0 -18 -1.5 -37.5t-8 -50t-17 -57t-31 -55t-48 -49t-69.5 -33.5t-94 -13q-70 0 -122 25t-78.5 59t-42.5 79t-19.5 74.5t-3.5 57.5q0 23 3 46.5t11 60t27 67t47 59t75.5 45t107.5 16.5zM303 69 q47 0 82.5 19t53.5 45t29 60.5t13.5 57.5t2.5 44q0 17 -2 36t-8 47t-18.5 52t-31.5 45.5t-50 34.5t-71 13q-49 0 -85.5 -19t-55.5 -45t-30.5 -61t-14 -58t-2.5 -45q0 -20 3 -44t15 -58t31 -60t55 -45t84 -19zM291 257q-23 0 -23 32h39q30 0 42.5 14.5t12.5 51.5 q0 33 -13.5 46.5t-44.5 13.5l-60 -3v-251q-38 3 -38 41v241l100 3q48 0 69 -20.5t21 -70.5q0 -83 -59 -95l67 -99q-27 0 -39 6.5t-22 20.5l-44 69h-8z"/>
<glyph horiz-adv-x="420" glyph-name="macron" unicode="¯" d="M418 653q0 -10 -5 -22.5t-27 -26.5t-57 -14h-324q0 10 5 22.5t27 26.5t57 14h324z"/>
<glyph horiz-adv-x="454" glyph-name="plusminus" unicode="±" d="M318 0h-237q-22 0 -34 11.5t-14.5 25t-2.5 36.5h351q29 0 38.5 -9t9.5 -28l-1 -36h-110zM428 300h-155v-103q0 -29 -9 -38.5t-28 -9.5l-36 1v150h-109q-22 0 -34 11.5t-14.5 25t-2.5 36.5h160v114q0 22 11.5 34t25 14.5t36.5 2.5v-165h108q29 0 38.5 -9t9.5 -28z"/>
<glyph horiz-adv-x="276" glyph-name="acute" unicode="´" d="M208 787q18 -18 18 -45q0 -32 -26 -64l-116 -145q-20 13 -20 45q0 30 27 64z"/>
<glyph horiz-adv-x="535" glyph-name="paragraph" unicode="¶" d="M355 -35q0 -32 -6 -52.5t-19 -29t-22 -10.5t-26 -3h-4l-1 334q-29 -8 -45 -8q-182 0 -182 218q0 129 45 184t145 55h15l351 -12q0 -3 -0.5 -7.5t-4 -16.5t-10 -21.5t-20 -17t-32.5 -7.5h-34v-606q0 -31 -7 -51t-20 -28.5t-24 -11.5t-27 -4v708h-167q-71 0 -101.5 -38 t-30.5 -126q0 -61 24.5 -101.5t79.5 -40.5q30 0 55.5 6t41 14t26.5 16.5t15 14.5l4 6q2 -7 2 -21q0 -28 -21 -62v-281z"/>
<glyph horiz-adv-x="204" glyph-name="cedilla" unicode="¸" d="M109 11l-12 -44q42 -1 63.5 -20.5t21.5 -48.5q0 -32 -25 -56.5t-66 -24.5q-71 0 -71 52l1 10q30 -15 70 -15q44 0 44 28q0 16 -18.5 28t-50.5 12l-24 -2l25 81h42z"/>
<glyph horiz-adv-x="405" glyph-name="ordmasculine" unicode="º" d="M50 484q0 26 5 50t18 53.5t43.5 47.5t75.5 18t76 -18t44 -47.5t18 -53.5t5 -50q0 -81 -34 -134t-109 -53q-74 0 -108 53.5t-34 133.5zM110 482q0 -57 20 -95t65 -38q44 0 64 38t20 95q0 18 -2.5 35.5t-10.5 38.5t-26 33.5t-45 12.5t-45 -13t-26 -33.5t-11 -38t-3 -35.5z "/>
<glyph horiz-adv-x="688" glyph-name="onequarter" unicode="¼" d="M488 522l-314 -574q-33 25 -22 76q6 29 30 76q113 207 312 574q31 -31 21 -80q-5 -27 -27 -72zM247 344v-13q0 -31 -21 -31h-188q2 23 12 44h73v265h-49q-18 0 -25 15.5t-7 28.5h128v-312zM394 80q7 41 70.5 148.5t71.5 125.5h73q4 -12 4 -46q0 -25 -1 -185h54q1 -2 1 -6 q0 -37 -31 -37h-24v-77q-15 -3 -24 -3q-20 0 -20 14v66h-174zM566 313h-3l-107 -192h110v192z"/>
<glyph horiz-adv-x="688" glyph-name="onehalf" unicode="½" d="M488 522l-314 -574q-33 25 -22 76q6 29 30 76q113 207 312 574q31 -31 21 -80q-5 -27 -27 -72zM247 344v-13q0 -31 -21 -31h-188q2 23 12 44h73v265h-49q-18 0 -25 15.5t-7 28.5h128v-312zM632 42v-12q0 -31 -20 -31h-188q3 33 27 68.5t52 61.5t50.5 59.5t22.5 63.5 q0 24 -13.5 41t-42.5 17q-25 0 -43 -16.5t-23 -30t-5 -18.5q-6 23 -6 39q0 34 23 51t61 17q44 0 69.5 -26t28.5 -74q0 -30 -23 -65.5t-69.5 -86.5t-59.5 -67z"/>
<glyph horiz-adv-x="688" glyph-name="threequarters" unicode="¾" d="M488 522l-314 -574q-33 25 -22 76q6 29 30 76q113 207 312 574q31 -31 21 -80q-5 -27 -27 -72zM394 80q7 41 70.5 148.5t71.5 125.5h73q4 -12 4 -46q0 -25 -1 -185h54q1 -2 1 -6q0 -37 -31 -37h-24v-77q-15 -3 -24 -3q-20 0 -20 14v66h-174zM566 313h-3l-107 -192h110 v192zM40 351q38 -20 79 -20q38 0 65 24.5t27 58.5q0 29 -20.5 50t-51.5 21q-23 0 -50 -15v36q33 10 69.5 32.5t36.5 50.5q0 19 -17.5 31.5t-38.5 12.5q-25 0 -43 -16.5t-23 -30.5t-5 -19q-6 18 -6 39q0 65 84 65q44 0 67 -22.5t23 -56.5q0 -25 -17.5 -46t-45.5 -32 q42 -3 63.5 -30t21.5 -67q0 -50 -36.5 -83.5t-89.5 -33.5q-62 0 -92 51z"/>
<glyph horiz-adv-x="431" glyph-name="questiondown" unicode="¿" d="M369 41q-17 1 -46 2t-45.5 1.5t-40.5 2.5t-38.5 4.5t-32.5 7.5t-28 12t-20 16.5t-14 23.5t-4 31t7 30t22.5 23t27.5 15.5t35 13.5q28 11 41.5 17t33.5 19t28.5 31.5t8.5 43.5q0 39 -18 107q-9 34 -48 34q-11 0 -23 -2t-19 -4l-6 -2q16 -67 20 -116q0 -43 -51 -58 q-61 -17 -106.5 -55.5t-45.5 -96.5q0 -181 273 -181q51 0 70.5 15t19.5 48q0 11 -1 17zM280 592q0 -23 -16 -39.5t-39 -16.5t-39.5 16.5t-16.5 39.5t16.5 39t39.5 16t39 -16t16 -39z"/>
<glyph horiz-adv-x="497" glyph-name="Agrave" unicode="À" d="M117 879l109 -110q25 -26 25 -49q0 -24 -19 -34l-107 110q-24 24 -24 49q0 18 16 34zM316 583l194 -578q-9 -5 -26 -5q-64 0 -89 76q-1 4 -12.5 37t-19.5 59h-242q-6 -17 -12.5 -39.5t-11 -36.5t-7.5 -22q-22 -74 -91 -74l-14 1l202 652h57q48 0 72 -70zM142 240h200 q-19 61 -56.5 175t-44.5 139l-39 -122q-38 -123 -60 -192z"/>
<glyph horiz-adv-x="497" glyph-name="Aacute" unicode="Á" d="M341 879q16 -16 16 -34q0 -25 -24 -49l-107 -110q-19 10 -19 34q0 23 25 49zM316 583l194 -578q-9 -5 -26 -5q-64 0 -89 76q-1 4 -12.5 37t-19.5 59h-242q-6 -17 -12.5 -39.5t-11 -36.5t-7.5 -22q-22 -74 -91 -74l-14 1l202 652h57q48 0 72 -70zM142 240h200 q-19 61 -56.5 175t-44.5 139l-39 -122q-38 -123 -60 -192z"/>
<glyph horiz-adv-x="497" glyph-name="Acircumflex" unicode="Â" d="M265 831l85 -90q27 -27 27 -53q0 -23 -22 -41l-112 133h-9q-91 -105 -116 -133q-21 14 -21 41t26 53l116 120zM316 583l194 -578q-9 -5 -26 -5q-64 0 -89 76q-1 4 -12.5 37t-19.5 59h-242q-6 -17 -12.5 -39.5t-11 -36.5t-7.5 -22q-22 -74 -91 -74l-14 1l202 652h57 q48 0 72 -70zM142 240h200q-19 61 -56.5 175t-44.5 139l-39 -122q-38 -123 -60 -192z"/>
<glyph horiz-adv-x="497" glyph-name="Atilde" unicode="Ã" d="M357 799q49 0 49 -42q0 -24 -24.5 -45.5t-58.5 -21.5q-35 0 -91 24.5t-77 24.5q-28 0 -37 -48q-12 -3 -22 -3q-34 0 -34 26q0 36 25.5 60.5t63.5 24.5q30 0 82 -25.5t80 -25.5q34 0 44 51zM316 583l194 -578q-9 -5 -26 -5q-64 0 -89 76q-1 4 -12.5 37t-19.5 59h-242 q-6 -17 -12.5 -39.5t-11 -36.5t-7.5 -22q-22 -74 -91 -74l-14 1l202 652h57q48 0 72 -70zM142 240h200q-19 61 -56.5 175t-44.5 139l-39 -122q-38 -123 -60 -192z"/>
<glyph horiz-adv-x="497" glyph-name="Adieresis" unicode="Ä" d="M122 736q0 17 12 29.5t29 12.5t29.5 -12.5t12.5 -29.5t-12.5 -29t-29.5 -12t-29 12t-12 29zM265 736q0 17 12 29.5t29 12.5t29.5 -12.5t12.5 -29.5t-12.5 -29t-29.5 -12t-29 12t-12 29zM316 583l194 -578q-9 -5 -26 -5q-64 0 -89 76q-1 4 -12.5 37t-19.5 59h-242 q-6 -17 -12.5 -39.5t-11 -36.5t-7.5 -22q-22 -74 -91 -74l-14 1l202 652h57q48 0 72 -70zM142 240h200q-19 61 -56.5 175t-44.5 139l-39 -122q-38 -123 -60 -192z"/>
<glyph horiz-adv-x="497" glyph-name="Aring" unicode="Å" d="M316 583l194 -578q-9 -5 -26 -5q-64 0 -89 76q-1 4 -12.5 37t-19.5 59h-242q-6 -17 -12.5 -39.5t-11 -36.5t-7.5 -22q-22 -74 -91 -74l-14 1l202 652h57q48 0 72 -70zM142 240h200q-19 61 -56.5 175t-44.5 139l-39 -122q-38 -123 -60 -192zM143 787q0 37 28 63.5t67 26.5 t67 -26.5t28 -63.5t-28 -63.5t-67 -26.5t-67 26.5t-28 63.5zM194 787q0 -18 13 -31t31 -13t31 13t13 31t-13 31t-31 13t-31 -13t-13 -31z"/>
<glyph horiz-adv-x="781" glyph-name="AE" unicode="Æ" d="M195 240h200q-19 61 -56.5 175t-44.5 139l-38 -122q-39 -123 -61 -192zM675 0h-196l-63 172h-242q-6 -17 -12.5 -39.5t-11 -36.5t-7.5 -22q-22 -74 -91 -74l-14 1l202 652h390q0 -77 -97 -77h-162q12 -34 71 -208h226q4 -22 4 -33q0 -22 -15 -34t-54 -12h-135 q27 -80 71 -212h233q0 -77 -97 -77z"/>
<glyph horiz-adv-x="559" glyph-name="Ccedilla" unicode="Ç" d="M307 64q57 0 112 19.5t82 38.5l27 20q0 -71 -59.5 -114.5t-145.5 -45.5l-4 -15q42 -1 63.5 -20.5t21.5 -48.5q0 -32 -25 -56.5t-66 -24.5q-71 0 -71 52l1 10q30 -15 70 -15q44 0 44 28q0 16 -18.5 28t-50.5 12l-24 -2l16 54q-63 7 -110.5 38t-75.5 78t-42 102.5 t-14 116.5q0 64 16 121.5t47.5 106.5t87 77.5t127.5 28.5q88 0 150 -44t62 -116q-4 3 -11 8.5t-30 19t-47 23.5t-60.5 18.5t-72.5 8.5q-49 0 -85.5 -21t-56.5 -58t-29 -80.5t-9 -94.5q0 -70 15.5 -124t57.5 -91.5t107 -37.5z"/>
<glyph horiz-adv-x="460" glyph-name="Egrave" unicode="È" d="M138 879l109 -110q25 -26 25 -49q0 -24 -19 -34l-107 110q-24 24 -24 49q0 18 16 34zM162 289v-212h265q0 -22 -2 -32.5t-10.5 -22.5t-29.5 -17t-56 -5h-253v653h350q0 -77 -97 -77h-167v-208h232q4 -22 4 -33q0 -22 -15 -34t-54 -12h-167z"/>
<glyph horiz-adv-x="444" glyph-name="Eacute" unicode="É" d="M336 879q16 -16 16 -34q0 -25 -24 -49l-107 -110q-19 10 -19 34q0 23 25 49zM146 289v-212h265q0 -22 -2 -32.5t-10.5 -22.5t-29.5 -17t-56 -5h-253v653h350q0 -77 -97 -77h-167v-208h232q4 -22 4 -33q0 -22 -15 -34t-54 -12h-167z"/>
<glyph horiz-adv-x="444" glyph-name="Ecircumflex" unicode="Ê" d="M106 771l85 81l26 27l116 -108q26 -23 26 -48q0 -24 -21 -38q-42 43 -116 121h-9l-112 -121q-22 18 -22 38q0 24 27 48zM146 289v-212h265q0 -22 -2 -32.5t-10.5 -22.5t-29.5 -17t-56 -5h-253v653h350q0 -77 -97 -77h-167v-208h232q4 -22 4 -33q0 -22 -15 -34t-54 -12 h-167z"/>
<glyph horiz-adv-x="444" glyph-name="Edieresis" unicode="Ë" d="M123 745q0 17 12 29.5t29 12.5t29.5 -12.5t12.5 -29.5t-12.5 -29t-29.5 -12t-29 12t-12 29zM266 745q0 17 12 29.5t29 12.5t29.5 -12.5t12.5 -29.5t-12.5 -29t-29.5 -12t-29 12t-12 29zM146 289v-212h265q0 -22 -2 -32.5t-10.5 -22.5t-29.5 -17t-56 -5h-253v653h350 q0 -77 -97 -77h-167v-208h232q4 -22 4 -33q0 -22 -15 -34t-54 -12h-167z"/>
<glyph horiz-adv-x="192" glyph-name="Igrave" unicode="Ì" d="M-23 879l109 -110q25 -26 25 -49q0 -24 -19 -34l-107 110q-24 24 -24 49q0 18 16 34zM50 99v554q92 0 92 -99v-554q-92 0 -92 99z"/>
<glyph horiz-adv-x="192" glyph-name="Iacute" unicode="Í" d="M191 879q16 -16 16 -34q0 -25 -24 -49l-107 -110q-19 10 -19 34q0 23 25 49zM50 99v554q92 0 92 -99v-554q-92 0 -92 99z"/>
<glyph horiz-adv-x="192" glyph-name="Icircumflex" unicode="Î" d="M105 831l85 -90q27 -27 27 -53q0 -23 -22 -41l-112 133h-9q-91 -105 -116 -133q-21 14 -21 41t26 53l116 120zM50 99v554q92 0 92 -99v-554q-92 0 -92 99z"/>
<glyph horiz-adv-x="192" glyph-name="Idieresis" unicode="Ï" d="M50 99v554q92 0 92 -99v-554q-92 0 -92 99zM-23 727q0 17 12 29.5t29 12.5t29.5 -12.5t12.5 -29.5t-12.5 -29t-29.5 -12t-29 12t-12 29zM120 727q0 17 12 29.5t29 12.5t29.5 -12.5t12.5 -29.5t-12.5 -29t-29.5 -12t-29 12t-12 29z"/>
<glyph horiz-adv-x="595" glyph-name="Eth" unicode="Ð" d="M229 0l-179 13v269h-122q0 7 2.5 16t9 20.5t21.5 19.5t36 8h53v298l179 9q169 0 242.5 -72.5t73.5 -253.5q0 -182 -73.5 -254.5t-242.5 -72.5zM132 83l97 -11q126 0 180 57t54 198q0 140 -54 197t-180 57l-97 -9v-226h118q0 -10 -4 -22.5t-21 -27t-44 -14.5h-49v-199z "/>
<glyph horiz-adv-x="548" glyph-name="Ntilde" unicode="Ñ" d="M397 810q49 0 49 -42q0 -24 -24.5 -45.5t-58.5 -21.5q-35 0 -91 24.5t-77 24.5q-28 0 -37 -48q-12 -3 -22 -3q-34 0 -34 26q0 36 25.5 60.5t63.5 24.5q30 0 82 -25.5t80 -25.5q34 0 44 51zM50 89v564q27 0 41.5 -1.5t35 -11.5t31.5 -29q251 -447 254 -454v495q4 1 8 1 q78 0 78 -64v-589q-26 0 -41 1.5t-36 11t-32 28.5q-254 444 -256 448v-489q-27 0 -38 1.5t-23.5 9.5t-17 26.5t-4.5 51.5z"/>
<glyph horiz-adv-x="569" glyph-name="Ograve" unicode="Ò" d="M163 879l109 -110q25 -26 25 -49q0 -24 -19 -34l-107 110q-24 24 -24 49q0 18 16 34zM297 653q68 0 119 -28t76.5 -65.5t41 -88.5t19 -84.5t3.5 -65.5t-3.5 -65.5t-19 -85t-42 -89.5t-78 -66.5t-121.5 -28.5q-57 0 -102.5 19t-72.5 51.5t-45 67.5t-26 76.5t-11 68.5 t-3 52q0 21 1.5 43t8 56.5t17 64.5t31 61.5t47.5 54.5t68 37.5t92 14.5zM297 65q46 0 81 21.5t52.5 50.5t28.5 68t13.5 65.5t2.5 50.5t-2.5 50.5t-13.5 66t-28.5 69t-52.5 51t-81 21.5q-48 0 -84 -21.5t-54 -51t-29.5 -69t-14 -65.5t-2.5 -51q0 -23 3 -50.5t14.5 -65.5 t30.5 -67.5t54.5 -51t81.5 -21.5z"/>
<glyph horiz-adv-x="569" glyph-name="Oacute" unicode="Ó" d="M381 879q16 -16 16 -34q0 -25 -24 -49l-107 -110q-19 10 -19 34q0 23 25 49zM297 653q68 0 119 -28t76.5 -65.5t41 -88.5t19 -84.5t3.5 -65.5t-3.5 -65.5t-19 -85t-42 -89.5t-78 -66.5t-121.5 -28.5q-57 0 -102.5 19t-72.5 51.5t-45 67.5t-26 76.5t-11 68.5t-3 52 q0 21 1.5 43t8 56.5t17 64.5t31 61.5t47.5 54.5t68 37.5t92 14.5zM297 65q46 0 81 21.5t52.5 50.5t28.5 68t13.5 65.5t2.5 50.5t-2.5 50.5t-13.5 66t-28.5 69t-52.5 51t-81 21.5q-48 0 -84 -21.5t-54 -51t-29.5 -69t-14 -65.5t-2.5 -51q0 -23 3 -50.5t14.5 -65.5t30.5 -67.5 t54.5 -51t81.5 -21.5z"/>
<glyph horiz-adv-x="569" glyph-name="Ocircumflex" unicode="Ô" d="M297 653q68 0 119 -28t76.5 -65.5t41 -88.5t19 -84.5t3.5 -65.5t-3.5 -65.5t-19 -85t-42 -89.5t-78 -66.5t-121.5 -28.5q-57 0 -102.5 19t-72.5 51.5t-45 67.5t-26 76.5t-11 68.5t-3 52q0 21 1.5 43t8 56.5t17 64.5t31 61.5t47.5 54.5t68 37.5t92 14.5zM297 65 q46 0 81 21.5t52.5 50.5t28.5 68t13.5 65.5t2.5 50.5t-2.5 50.5t-13.5 66t-28.5 69t-52.5 51t-81 21.5q-48 0 -84 -21.5t-54 -51t-29.5 -69t-14 -65.5t-2.5 -51q0 -23 3 -50.5t14.5 -65.5t30.5 -67.5t54.5 -51t81.5 -21.5zM312 864l85 -90q27 -27 27 -53q0 -23 -22 -41 l-112 133h-9q-91 -105 -116 -133q-21 14 -21 41t26 53l116 120z"/>
<glyph horiz-adv-x="569" glyph-name="Otilde" unicode="Õ" d="M397 810q49 0 49 -42q0 -24 -24.5 -45.5t-58.5 -21.5q-35 0 -91 24.5t-77 24.5q-28 0 -37 -48q-12 -3 -22 -3q-34 0 -34 26q0 36 25.5 60.5t63.5 24.5q30 0 82 -25.5t80 -25.5q34 0 44 51zM297 653q68 0 119 -28t76.5 -65.5t41 -88.5t19 -84.5t3.5 -65.5t-3.5 -65.5 t-19 -85t-42 -89.5t-78 -66.5t-121.5 -28.5q-57 0 -102.5 19t-72.5 51.5t-45 67.5t-26 76.5t-11 68.5t-3 52q0 21 1.5 43t8 56.5t17 64.5t31 61.5t47.5 54.5t68 37.5t92 14.5zM297 65q46 0 81 21.5t52.5 50.5t28.5 68t13.5 65.5t2.5 50.5t-2.5 50.5t-13.5 66t-28.5 69 t-52.5 51t-81 21.5q-48 0 -84 -21.5t-54 -51t-29.5 -69t-14 -65.5t-2.5 -51q0 -23 3 -50.5t14.5 -65.5t30.5 -67.5t54.5 -51t81.5 -21.5z"/>
<glyph horiz-adv-x="569" glyph-name="Odieresis" unicode="Ö" d="M181 726q0 17 12 29.5t29 12.5t29.5 -12.5t12.5 -29.5t-12.5 -29t-29.5 -12t-29 12t-12 29zM324 726q0 17 12 29.5t29 12.5t29.5 -12.5t12.5 -29.5t-12.5 -29t-29.5 -12t-29 12t-12 29zM297 653q68 0 119 -28t76.5 -65.5t41 -88.5t19 -84.5t3.5 -65.5t-3.5 -65.5t-19 -85 t-42 -89.5t-78 -66.5t-121.5 -28.5q-57 0 -102.5 19t-72.5 51.5t-45 67.5t-26 76.5t-11 68.5t-3 52q0 21 1.5 43t8 56.5t17 64.5t31 61.5t47.5 54.5t68 37.5t92 14.5zM297 65q46 0 81 21.5t52.5 50.5t28.5 68t13.5 65.5t2.5 50.5t-2.5 50.5t-13.5 66t-28.5 69t-52.5 51 t-81 21.5q-48 0 -84 -21.5t-54 -51t-29.5 -69t-14 -65.5t-2.5 -51q0 -23 3 -50.5t14.5 -65.5t30.5 -67.5t54.5 -51t81.5 -21.5z"/>
<glyph horiz-adv-x="569" glyph-name="Oslash" unicode="Ø" d="M297 653q28 0 56 -5q3 8 8 24.5t7 25.5q35 -22 37 -67q48 -22 81 -64.5t46.5 -92t18.5 -85t5 -68.5q0 -32 -3.5 -65.5t-19 -85t-42 -89.5t-78 -66.5t-121.5 -28.5q-33 0 -69 9l-22 -72q-37 18 -37 70q0 6 2 24q-35 20 -61 53.5t-39.5 66.5t-21.5 71.5t-10 63.5t-2 49 q0 21 1.5 43t8 56.5t17 64.5t31 61.5t47.5 54.5t68 37.5t92 14.5zM297 65q46 0 81 21.5t52.5 50.5t28.5 68t13.5 65.5t2.5 50.5q0 32 -4.5 67t-24.5 84.5t-53 75.5l-146 -476q21 -7 50 -7zM113 321q0 -51 16 -113.5t59 -101.5q54 176 143 470q-16 3 -34 3q-48 0 -84 -21.5 t-54 -51t-29.5 -69t-14 -65.5t-2.5 -51z"/>
<glyph horiz-adv-x="526" glyph-name="Ugrave" unicode="Ù" d="M482 553v-337q0 -216 -206 -216q-63 0 -108.5 18t-67.5 41t-34 60t-14 59t-2 54v421q17 -3 23.5 -4.5t21.5 -8.5t22 -16.5t13 -27.5t6 -42v-320q0 -14 1.5 -28t9 -38.5t20.5 -42.5t39.5 -31.5t62.5 -13.5q41 0 69 16t39.5 42.5t15.5 46t4 38.5v430q21 -4 32.5 -8 t25.5 -13.5t20.5 -29t6.5 -49.5zM156 907l117 -145q27 -34 27 -64q0 -32 -20 -45l-116 145q-26 33 -26 64q0 27 18 45z"/>
<glyph horiz-adv-x="526" glyph-name="Uacute" unicode="Ú" d="M482 553v-337q0 -216 -206 -216q-63 0 -108.5 18t-67.5 41t-34 60t-14 59t-2 54v421q17 -3 23.5 -4.5t21.5 -8.5t22 -16.5t13 -27.5t6 -42v-320q0 -14 1.5 -28t9 -38.5t20.5 -42.5t39.5 -31.5t62.5 -13.5q41 0 69 16t39.5 42.5t15.5 46t4 38.5v430q21 -4 32.5 -8 t25.5 -13.5t20.5 -29t6.5 -49.5zM367 908q18 -18 18 -45q0 -31 -26 -64l-116 -145q-20 13 -20 45q0 30 27 64z"/>
<glyph horiz-adv-x="526" glyph-name="Ucircumflex" unicode="Û" d="M482 553v-337q0 -216 -206 -216q-63 0 -108.5 18t-67.5 41t-34 60t-14 59t-2 54v421q17 -3 23.5 -4.5t21.5 -8.5t22 -16.5t13 -27.5t6 -42v-320q0 -14 1.5 -28t9 -38.5t20.5 -42.5t39.5 -31.5t62.5 -13.5q41 0 69 16t39.5 42.5t15.5 46t4 38.5v430q21 -4 32.5 -8 t25.5 -13.5t20.5 -29t6.5 -49.5zM288 837l85 -90q27 -27 27 -53q0 -23 -22 -41l-112 133h-9q-91 -105 -116 -133q-21 14 -21 41t26 53l116 120z"/>
<glyph horiz-adv-x="526" glyph-name="Udieresis" unicode="Ü" d="M482 553v-337q0 -216 -206 -216q-63 0 -108.5 18t-67.5 41t-34 60t-14 59t-2 54v421q17 -3 23.5 -4.5t21.5 -8.5t22 -16.5t13 -27.5t6 -42v-320q0 -14 1.5 -28t9 -38.5t20.5 -42.5t39.5 -31.5t62.5 -13.5q41 0 69 16t39.5 42.5t15.5 46t4 38.5v430q21 -4 32.5 -8 t25.5 -13.5t20.5 -29t6.5 -49.5zM141 738q0 17 12 29.5t29 12.5t29.5 -12.5t12.5 -29.5t-12.5 -29t-29.5 -12t-29 12t-12 29zM284 738q0 17 12 29.5t29 12.5t29.5 -12.5t12.5 -29.5t-12.5 -29t-29.5 -12t-29 12t-12 29z"/>
<glyph horiz-adv-x="460" glyph-name="Yacute" unicode="Ý" d="M321 879q16 -16 16 -34q0 -25 -24 -49l-107 -110q-19 10 -19 34q0 23 25 49zM-2 646l197 -391v-170q0 -85 67 -85l17 1v253q134 266 164 334q5 10 5 23q0 41 -71 41q-15 -30 -40 -84.5t-31 -67.5l-70 -147q-81 180 -118 250q-26 50 -82 50q-8 0 -17.5 -1.5t-14.5 -3.5z "/>
<glyph horiz-adv-x="559" glyph-name="Thorn" unicode="Þ" d="M398 42q-258 450 -260 454v-405q0 -33 -5 -52.5t-18.5 -27.5t-25.5 -9.5t-39 -1.5v662q27 0 42.5 -1.5t37.5 -11.5t33 -29q259 -460 259 -461v502q4 1 8 1q79 0 79 -65v-597q-27 0 -42 1.5t-36.5 11.5t-32.5 29z"/>
<glyph horiz-adv-x="552" glyph-name="germandbls" unicode="ß" d="M230 315q1 30 13 55t28 42.5t32.5 34t27.5 37t11 43.5q0 64 -88 64q-33 0 -55.5 -12t-32 -32t-12.5 -35t-3 -30v-483q-35 0 -57 19.5t-22 73.5v390q0 78 49.5 124.5t137.5 46.5q85 0 124 -35t39 -88q0 -41 -27 -81t-53.5 -72t-26.5 -52q0 -23 32.5 -43.5t71.5 -35 t71 -43.5t32 -68q-1 -80 -48.5 -113t-134.5 -33h-5q-77 1 -104.5 27t-27.5 56l2 16q68 -35 146 -35q89 0 93 56q-1 30 -22.5 50.5t-52 32.5t-61.5 25t-53 37.5t-24 60.5z"/>
<glyph horiz-adv-x="476" glyph-name="agrave" unicode="à" d="M125 787l117 -145q27 -34 27 -64q0 -32 -20 -45l-116 145q-26 32 -26 64q0 27 18 45zM51 354q0 80 42.5 118.5t130.5 38.5t145 -56.5t57 -156.5v-227q-101 -85 -204 -85q-73 0 -118.5 41t-45.5 121q0 37 16 65t40.5 44t58.5 25.5t63.5 12.5t62.5 3q42 0 57 -1 q0 60 -35.5 98t-110.5 38q-22 0 -43 -4.5t-36.5 -11.5t-29.5 -16t-23 -17.5t-15.5 -16t-8.5 -10.5zM356 107v128q-12 1 -34 1q-184 0 -184 -96q0 -26 11 -43.5t29 -25t32 -10.5t27 -3q62 0 119 49z"/>
<glyph horiz-adv-x="476" glyph-name="aacute" unicode="á" d="M321 787q18 -18 18 -45q0 -32 -26 -64l-116 -145q-20 13 -20 45q0 30 27 64zM51 354q0 80 42.5 118.5t130.5 38.5t145 -56.5t57 -156.5v-227q-101 -85 -204 -85q-73 0 -118.5 41t-45.5 121q0 37 16 65t40.5 44t58.5 25.5t63.5 12.5t62.5 3q42 0 57 -1q0 60 -35.5 98 t-110.5 38q-22 0 -43 -4.5t-36.5 -11.5t-29.5 -16t-23 -17.5t-15.5 -16t-8.5 -10.5zM356 107v128q-12 1 -34 1q-184 0 -184 -96q0 -26 11 -43.5t29 -25t32 -10.5t27 -3q62 0 119 49z"/>
<glyph horiz-adv-x="476" glyph-name="acircumflex" unicode="â" d="M266 720l85 -90q27 -27 27 -53q0 -23 -22 -41l-112 133h-9q-91 -105 -116 -133q-21 14 -21 41t26 53l116 120zM51 354q0 80 42.5 118.5t130.5 38.5t145 -56.5t57 -156.5v-227q-101 -85 -204 -85q-73 0 -118.5 41t-45.5 121q0 37 16 65t40.5 44t58.5 25.5t63.5 12.5 t62.5 3q42 0 57 -1q0 60 -35.5 98t-110.5 38q-22 0 -43 -4.5t-36.5 -11.5t-29.5 -16t-23 -17.5t-15.5 -16t-8.5 -10.5zM356 107v128q-12 1 -34 1q-184 0 -184 -96q0 -26 11 -43.5t29 -25t32 -10.5t27 -3q62 0 119 49z"/>
<glyph horiz-adv-x="476" glyph-name="atilde" unicode="ã" d="M51 354q0 80 42.5 118.5t130.5 38.5t145 -56.5t57 -156.5v-227q-101 -85 -204 -85q-73 0 -118.5 41t-45.5 121q0 37 16 65t40.5 44t58.5 25.5t63.5 12.5t62.5 3q42 0 57 -1q0 60 -35.5 98t-110.5 38q-22 0 -43 -4.5t-36.5 -11.5t-29.5 -16t-23 -17.5t-15.5 -16 t-8.5 -10.5zM356 107v128q-12 1 -34 1q-184 0 -184 -96q0 -26 11 -43.5t29 -25t32 -10.5t27 -3q62 0 119 49zM361 691q49 0 49 -42q0 -24 -24.5 -45.5t-58.5 -21.5q-35 0 -91 24.5t-77 24.5q-28 0 -37 -48q-12 -3 -22 -3q-34 0 -34 26q0 36 25.5 60.5t63.5 24.5 q30 0 82 -25.5t80 -25.5q34 0 44 51z"/>
<glyph horiz-adv-x="476" glyph-name="adieresis" unicode="ä" d="M51 354q0 80 42.5 118.5t130.5 38.5t145 -56.5t57 -156.5v-227q-101 -85 -204 -85q-73 0 -118.5 41t-45.5 121q0 37 16 65t40.5 44t58.5 25.5t63.5 12.5t62.5 3q42 0 57 -1q0 60 -35.5 98t-110.5 38q-22 0 -43 -4.5t-36.5 -11.5t-29.5 -16t-23 -17.5t-15.5 -16 t-8.5 -10.5zM356 107v128q-12 1 -34 1q-184 0 -184 -96q0 -26 11 -43.5t29 -25t32 -10.5t27 -3q62 0 119 49zM97 604q0 20 13.5 34.5t33.5 14.5t34.5 -14.5t14.5 -34.5t-14.5 -34t-34.5 -14t-33.5 14t-13.5 34zM263 604q0 20 14 34.5t34 14.5t34.5 -14.5t14.5 -34.5 t-14.5 -34t-34.5 -14t-34 14t-14 34z"/>
<glyph horiz-adv-x="476" glyph-name="aring" unicode="å" d="M133 634q0 37 28 63.5t67 26.5t67 -26.5t28 -63.5t-28 -63.5t-67 -26.5t-67 26.5t-28 63.5zM184 634q0 -18 13 -31t31 -13t31 13t13 31t-13 31t-31 13t-31 -13t-13 -31zM51 354q0 80 42.5 118.5t130.5 38.5t145 -56.5t57 -156.5v-227q-101 -85 -204 -85q-73 0 -118.5 41 t-45.5 121q0 37 16 65t40.5 44t58.5 25.5t63.5 12.5t62.5 3q42 0 57 -1q0 60 -35.5 98t-110.5 38q-22 0 -43 -4.5t-36.5 -11.5t-29.5 -16t-23 -17.5t-15.5 -16t-8.5 -10.5zM356 107v128q-12 1 -34 1q-184 0 -184 -96q0 -26 11 -43.5t29 -25t32 -10.5t27 -3q62 0 119 49z"/>
<glyph horiz-adv-x="745" glyph-name="ae" unicode="æ" d="M518 511q98 0 142 -66t44 -166q0 -28 -3 -53h-303q4 -62 38 -109t96 -47q36 0 66.5 8t49 19t31.5 22t18 19l5 8q3 -13 3 -26q0 -59 -50 -96.5t-117 -37.5q-107 0 -165 75q-94 -75 -191 -75q-73 0 -118.5 41t-45.5 121q0 37 16 65t40.5 44t58.5 25.5t63.5 12.5t62.5 3 q42 0 57 -1q0 126 -146 126q-94 0 -159 -69q0 80 42.5 118.5t130.5 38.5q114 0 169 -87q49 87 165 87zM316 107v128q-12 1 -34 1q-184 0 -184 -96q0 -26 11 -43.5t29 -25t32 -10.5t27 -3q62 0 119 49zM401 297h224q-3 138 -112 138q-104 0 -112 -138z"/>
<glyph horiz-adv-x="486" glyph-name="ccedilla" unicode="ç" d="M436 120q0 -57 -47.5 -94.5t-112.5 -39.5l-5 -19q42 -1 63.5 -20.5t21.5 -48.5q0 -32 -25 -56.5t-66 -24.5q-71 0 -71 52l1 10q30 -15 70 -15q44 0 44 28q0 16 -18.5 28t-50.5 12l-24 -2l18 59q-88 13 -136 85.5t-48 168.5q0 268 219 268q67 0 117 -37.5t50 -96.5 q0 -13 -3 -26q-2 3 -5.5 8t-17.5 18.5t-31.5 23.5t-48.5 18t-67 8q-72 0 -103 -51t-31 -129q0 -72 35.5 -124.5t98.5 -52.5q36 0 66.5 8t49 19t31.5 22t18 19l5 8q3 -13 3 -26z"/>
<glyph horiz-adv-x="469" glyph-name="egrave" unicode="è" d="M115 787l117 -145q27 -34 27 -64q0 -32 -20 -45l-116 145q-26 32 -26 64q0 27 18 45zM232 511q98 0 142 -66t44 -166q0 -28 -3 -53h-303q4 -62 38 -109t96 -47q36 0 66.5 8t49 19t31.5 22t18 19l5 8q3 -13 3 -26q0 -59 -50 -96.5t-117 -37.5q-53 0 -93.5 18.5t-64 46.5 t-38 66.5t-19.5 72t-5 69.5q0 252 200 252zM115 297h224q-3 138 -112 138q-104 0 -112 -138z"/>
<glyph horiz-adv-x="469" glyph-name="eacute" unicode="é" d="M321 787q18 -18 18 -45q0 -32 -26 -64l-116 -145q-20 13 -20 45q0 30 27 64zM232 511q98 0 142 -66t44 -166q0 -28 -3 -53h-303q4 -62 38 -109t96 -47q36 0 66.5 8t49 19t31.5 22t18 19l5 8q3 -13 3 -26q0 -59 -50 -96.5t-117 -37.5q-53 0 -93.5 18.5t-64 46.5t-38 66.5 t-19.5 72t-5 69.5q0 252 200 252zM115 297h224q-3 138 -112 138q-104 0 -112 -138z"/>
<glyph horiz-adv-x="469" glyph-name="ecircumflex" unicode="ê" d="M252 744l85 -90q27 -27 27 -53q0 -23 -22 -41l-112 133h-9q-91 -105 -116 -133q-21 14 -21 41t26 53l116 120zM232 511q98 0 142 -66t44 -166q0 -28 -3 -53h-303q4 -62 38 -109t96 -47q36 0 66.5 8t49 19t31.5 22t18 19l5 8q3 -13 3 -26q0 -59 -50 -96.5t-117 -37.5 q-53 0 -93.5 18.5t-64 46.5t-38 66.5t-19.5 72t-5 69.5q0 252 200 252zM115 297h224q-3 138 -112 138q-104 0 -112 -138z"/>
<glyph horiz-adv-x="469" glyph-name="edieresis" unicode="ë" d="M110 632q0 17 12 29.5t29 12.5t29.5 -12.5t12.5 -29.5t-12.5 -29t-29.5 -12t-29 12t-12 29zM253 632q0 17 12 29.5t29 12.5t29.5 -12.5t12.5 -29.5t-12.5 -29t-29.5 -12t-29 12t-12 29zM232 511q98 0 142 -66t44 -166q0 -28 -3 -53h-303q4 -62 38 -109t96 -47 q36 0 66.5 8t49 19t31.5 22t18 19l5 8q3 -13 3 -26q0 -59 -50 -96.5t-117 -37.5q-53 0 -93.5 18.5t-64 46.5t-38 66.5t-19.5 72t-5 69.5q0 252 200 252zM115 297h224q-3 138 -112 138q-104 0 -112 -138z"/>
<glyph horiz-adv-x="199" glyph-name="igrave" unicode="ì" d="M144 0q-4 1 -16 2.5t-16.5 3t-14.5 5.5t-15 11t-10.5 17.5t-8 27.5t-2.5 39v405q19 0 29.5 -2t25 -11t21.5 -32t7 -61v-405zM-22 807l117 -145q27 -34 27 -64q0 -32 -20 -45l-116 145q-26 32 -26 64q0 27 18 45z"/>
<glyph horiz-adv-x="199" glyph-name="iacute" unicode="í" d="M144 0q-4 1 -16 2.5t-16.5 3t-14.5 5.5t-15 11t-10.5 17.5t-8 27.5t-2.5 39v405q19 0 29.5 -2t25 -11t21.5 -32t7 -61v-405zM204 808q18 -18 18 -45q0 -31 -26 -64l-116 -145q-20 13 -20 45q0 30 27 64z"/>
<glyph horiz-adv-x="199" glyph-name="icircumflex" unicode="î" d="M144 0q-4 1 -16 2.5t-16.5 3t-14.5 5.5t-15 11t-10.5 17.5t-8 27.5t-2.5 39v405q19 0 29.5 -2t25 -11t21.5 -32t7 -61v-405zM128 684l85 -90q27 -27 27 -53q0 -23 -22 -41l-112 133h-9q-91 -105 -116 -133q-21 14 -21 41t26 53l116 120z"/>
<glyph horiz-adv-x="199" glyph-name="idieresis" unicode="ï" d="M144 0q-4 1 -16 2.5t-16.5 3t-14.5 5.5t-15 11t-10.5 17.5t-8 27.5t-2.5 39v405q19 0 29.5 -2t25 -11t21.5 -32t7 -61v-405zM-35 589q0 20 13.5 33.5t32.5 13.5q20 0 34 -14t14 -33t-14 -33t-34 -14q-19 0 -32.5 13.5t-13.5 33.5zM127 589q0 20 13.5 33.5t32.5 13.5 q20 0 34 -14t14 -33t-14 -33t-34 -14q-19 0 -32.5 13.5t-13.5 33.5z"/>
<glyph horiz-adv-x="494" glyph-name="ntilde" unicode="ñ" d="M50 106v290q1 5 4.5 12.5t18.5 27.5t35.5 35.5t59.5 28t87 12.5q49 0 85.5 -14.5t55.5 -34.5t30 -48.5t14 -49.5t3 -44q0 -4 0.5 -92t0.5 -229q-20 4 -30.5 7.5t-26.5 13.5t-23.5 31t-7.5 53v212q0 28 -6.5 51.5t-31 44.5t-65.5 21q-23 0 -43.5 -5.5t-33.5 -12.5 t-22 -15.5t-13 -14t-4 -7.5v-379q-20 4 -30.5 7.5t-26 13.5t-23 31.5t-7.5 53.5zM363 680q28 0 41.5 -13.5t13.5 -35.5q0 -29 -27.5 -54t-65.5 -25q-39 0 -102 29t-87 29q-30 0 -41 -56q-14 -4 -25 -4q-38 0 -38 30q0 43 29 71.5t71 28.5q34 0 92 -30t90 -30q37 0 49 60z "/>
<glyph d="M28 262q0 29 3.5 57t16.5 64.5t34.5 63.5t61.5 45.5t94 18.5t94 -18.5t61.5 -45.5t34.5 -63.5t16.5 -64.5t3.5 -57q0 -75 -18.5 -134.5t-67.5 -100.5t-124 -41t-124 41t-67.5 100.5t-18.5 134.5zM116 259q0 -84 30 -139.5t95 -55.5t95 55.5t30 139.5q0 27 -4 52.5 t-16 56.5t-39 49.5t-66 18.5t-66 -18.5t-39 -49.5t-16 -56.5t-4 -52.5zM133 787l117 -145q27 -34 27 -64q0 -32 -20 -45l-116 145q-26 32 -26 64q0 27 18 45z" glyph-name="ograve" unicode="ò"/>
<glyph d="M28 262q0 29 3.5 57t16.5 64.5t34.5 63.5t61.5 45.5t94 18.5t94 -18.5t61.5 -45.5t34.5 -63.5t16.5 -64.5t3.5 -57q0 -75 -18.5 -134.5t-67.5 -100.5t-124 -41t-124 41t-67.5 100.5t-18.5 134.5zM116 259q0 -84 30 -139.5t95 -55.5t95 55.5t30 139.5q0 27 -4 52.5 t-16 56.5t-39 49.5t-66 18.5t-66 -18.5t-39 -49.5t-16 -56.5t-4 -52.5zM339 787q18 -18 18 -45q0 -32 -26 -64l-116 -145q-20 13 -20 45q0 30 27 64z" glyph-name="oacute" unicode="ó"/>
<glyph d="M28 262q0 29 3.5 57t16.5 64.5t34.5 63.5t61.5 45.5t94 18.5t94 -18.5t61.5 -45.5t34.5 -63.5t16.5 -64.5t3.5 -57q0 -75 -18.5 -134.5t-67.5 -100.5t-124 -41t-124 41t-67.5 100.5t-18.5 134.5zM116 259q0 -84 30 -139.5t95 -55.5t95 55.5t30 139.5q0 27 -4 52.5 t-16 56.5t-39 49.5t-66 18.5t-66 -18.5t-39 -49.5t-16 -56.5t-4 -52.5zM264 708l85 -90q27 -27 27 -53q0 -23 -22 -41l-112 133h-9q-91 -105 -116 -133q-21 14 -21 41t26 53l116 120z" glyph-name="ocircumflex" unicode="ô"/>
<glyph d="M28 262q0 29 3.5 57t16.5 64.5t34.5 63.5t61.5 45.5t94 18.5t94 -18.5t61.5 -45.5t34.5 -63.5t16.5 -64.5t3.5 -57q0 -75 -18.5 -134.5t-67.5 -100.5t-124 -41t-124 41t-67.5 100.5t-18.5 134.5zM116 259q0 -84 30 -139.5t95 -55.5t95 55.5t30 139.5q0 27 -4 52.5 t-16 56.5t-39 49.5t-66 18.5t-66 -18.5t-39 -49.5t-16 -56.5t-4 -52.5zM373 683q57 0 57 -49q0 -29 -28.5 -54t-68.5 -25q-41 0 -106.5 29t-90.5 29q-32 0 -43 -56q-14 -4 -26 -4q-40 0 -40 30q0 43 30 71.5t74 28.5q36 0 96.5 -30t93.5 -30q40 0 52 60z" glyph-name="otilde" unicode="õ"/>
<glyph d="M110 632q0 17 12 29.5t29 12.5t29.5 -12.5t12.5 -29.5t-12.5 -29t-29.5 -12t-29 12t-12 29zM253 632q0 17 12 29.5t29 12.5t29.5 -12.5t12.5 -29.5t-12.5 -29t-29.5 -12t-29 12t-12 29zM28 262q0 29 3.5 57t16.5 64.5t34.5 63.5t61.5 45.5t94 18.5t94 -18.5t61.5 -45.5 t34.5 -63.5t16.5 -64.5t3.5 -57q0 -75 -18.5 -134.5t-67.5 -100.5t-124 -41t-124 41t-67.5 100.5t-18.5 134.5zM116 259q0 -84 30 -139.5t95 -55.5t95 55.5t30 139.5q0 27 -4 52.5t-16 56.5t-39 49.5t-66 18.5t-66 -18.5t-39 -49.5t-16 -56.5t-4 -52.5z" glyph-name="odieresis" unicode="ö"/>
<glyph horiz-adv-x="487" glyph-name="divide" unicode="÷" d="M182 404q0 23 16 39.5t39 16.5t39.5 -16.5t16.5 -39.5t-16.5 -39t-39.5 -16t-39 16t-16 39zM182 74q0 23 16 39.5t39 16.5t39.5 -16.5t16.5 -39.5t-16.5 -39t-39.5 -16t-39 16t-16 39zM258 200h-157q-22 0 -34 11.5t-14.5 25t-2.5 36.5h341q29 0 38.5 -9t9.5 -28l-1 -36 h-180z"/>
<glyph d="M348 489l-1 -4q58 -33 79.5 -96t21.5 -127q0 -75 -18.5 -134.5t-67.5 -100.5t-124 -41q-16 0 -44 4l-38 -126q-37 18 -37 70q0 33 13 79q-104 63 -104 249q0 29 3.5 57t16.5 64.5t34.5 63.5t61.5 45.5t94 18.5q17 0 45 -4q2 6 40 132q37 -23 37 -74q0 -29 -12 -76z M366 259q0 100 -44 145l-104 -338q7 -2 23 -2q65 0 95 55.5t30 139.5zM116 259q0 -108 43 -159q20 64 56.5 185t45.5 149q-12 2 -20 2q-39 0 -66 -18.5t-39 -49.5t-16 -56.5t-4 -52.5z" glyph-name="oslash" unicode="ø"/>
<glyph horiz-adv-x="494" glyph-name="ugrave" unicode="ù" d="M131 754l117 -145q27 -34 27 -64q0 -32 -20 -45l-116 145q-26 33 -26 64q0 27 18 45zM444 406v-290q-1 -5 -4.5 -12.5t-18.5 -27.5t-35.5 -35.5t-59.5 -28t-87 -12.5q-49 0 -85.5 14.5t-55.5 34.5t-30 48.5t-14 49.5t-3 44q0 4 -0.5 92t-0.5 229q20 -4 30.5 -7.5 t26.5 -13.5t23.5 -31t7.5 -53v-212q0 -28 6.5 -51.5t31 -44.5t65.5 -21q23 0 43.5 5.5t33.5 12.5t22 15.5t13 14t4 7.5v379q20 -4 30.5 -7.5t26 -13.5t23 -31.5t7.5 -53.5z"/>
<glyph horiz-adv-x="494" glyph-name="uacute" unicode="ú" d="M338 756q18 -18 18 -45q0 -31 -26 -64l-116 -145q-20 13 -20 45q0 30 27 64zM444 406v-290q-1 -5 -4.5 -12.5t-18.5 -27.5t-35.5 -35.5t-59.5 -28t-87 -12.5q-49 0 -85.5 14.5t-55.5 34.5t-30 48.5t-14 49.5t-3 44q0 4 -0.5 92t-0.5 229q20 -4 30.5 -7.5t26.5 -13.5 t23.5 -31t7.5 -53v-212q0 -28 6.5 -51.5t31 -44.5t65.5 -21q23 0 43.5 5.5t33.5 12.5t22 15.5t13 14t4 7.5v379q20 -4 30.5 -7.5t26 -13.5t23 -31.5t7.5 -53.5z"/>
<glyph horiz-adv-x="494" glyph-name="ucircumflex" unicode="û" d="M444 406v-290q-1 -5 -4.5 -12.5t-18.5 -27.5t-35.5 -35.5t-59.5 -28t-87 -12.5q-49 0 -85.5 14.5t-55.5 34.5t-30 48.5t-14 49.5t-3 44q0 4 -0.5 92t-0.5 229q20 -4 30.5 -7.5t26.5 -13.5t23.5 -31t7.5 -53v-212q0 -28 6.5 -51.5t31 -44.5t65.5 -21q23 0 43.5 5.5 t33.5 12.5t22 15.5t13 14t4 7.5v379q20 -4 30.5 -7.5t26 -13.5t23 -31.5t7.5 -53.5zM261 727l85 -90q27 -27 27 -53q0 -23 -22 -41l-112 133h-9q-91 -105 -116 -133q-21 14 -21 41t26 53l116 120z"/>
<glyph horiz-adv-x="494" glyph-name="udieresis" unicode="ü" d="M120 632q0 17 12 29.5t29 12.5t29.5 -12.5t12.5 -29.5t-12.5 -29t-29.5 -12t-29 12t-12 29zM263 632q0 17 12 29.5t29 12.5t29.5 -12.5t12.5 -29.5t-12.5 -29t-29.5 -12t-29 12t-12 29zM444 406v-290q-1 -5 -4.5 -12.5t-18.5 -27.5t-35.5 -35.5t-59.5 -28t-87 -12.5 q-49 0 -85.5 14.5t-55.5 34.5t-30 48.5t-14 49.5t-3 44q0 4 -0.5 92t-0.5 229q20 -4 30.5 -7.5t26.5 -13.5t23.5 -31t7.5 -53v-212q0 -28 6.5 -51.5t31 -44.5t65.5 -21q23 0 43.5 5.5t33.5 12.5t22 15.5t13 14t4 7.5v379q20 -4 30.5 -7.5t26 -13.5t23 -31.5t7.5 -53.5z"/>
<glyph horiz-adv-x="486" glyph-name="yacute" unicode="ý" d="M361 756q18 -18 18 -45q0 -31 -26 -64l-116 -145q-20 13 -20 45q0 30 27 64zM364 26q-49 -26 -107 -26q-49 0 -85.5 14.5t-55.5 34.5t-30 48.5t-14 49.5t-3 44q0 4 -0.5 91.5t-0.5 228.5q88 0 88 -105v-211q0 -28 6.5 -51.5t31 -44.5t65.5 -21q98 0 98 54v379 q87 0 87 -106v-356q0 -36 -5 -69.5t-19.5 -72t-38 -66.5t-64 -46.5t-93.5 -18.5q-67 0 -117 37.5t-50 96.5q0 12 3 26q2 -3 5.5 -8t17.5 -18.5t31.5 -23.5t48.5 -18t67 -8q62 0 96 49t38 117z"/>
<glyph horiz-adv-x="444" glyph-name="afii10023" unicode="Ё" d="M146 289v-212h265q0 -22 -2 -32.5t-10.5 -22.5t-29.5 -17t-56 -5h-253v653h350q0 -77 -97 -77h-167v-208h232q4 -22 4 -33q0 -22 -15 -34t-54 -12h-167zM106 776q0 20 14 34t34 14t34.5 -14.5t14.5 -33.5q0 -20 -14.5 -34t-34.5 -14t-34 14t-14 34zM272 776q0 20 14 34 t34 14t34 -14t14 -34t-14 -34t-34 -14t-34 14t-14 34z"/>
<glyph horiz-adv-x="595" glyph-name="afii10051" unicode="Ђ" d="M317 77q26 -8 47 -8q48 0 78 36.5t30 109.5q0 70 -27 121.5t-78 51.5q-58 0 -85.5 -27.5t-33.5 -61.5v-299q-18 3 -25.5 5t-23 8.5t-23 16t-14 27.5t-6.5 42v470h-173q-2 4 -2 15q0 15 5 29t25 27t53 13h367q0 -84 -60 -84h-123v-172h6q23 66 120 66q57 0 97 -21.5 t60 -58.5t28.5 -76t8.5 -84q0 -36 -3 -64t-12.5 -58.5t-26 -51t-45.5 -33.5t-69 -13q-31 0 -52.5 9t-29.5 23t-10.5 23.5t-2.5 18.5z"/>
<glyph horiz-adv-x="382" glyph-name="afii10052" unicode="Ѓ" d="M50 99v554h391q0 -10 -2.5 -22t-10.5 -29t-27 -28t-48 -11h-210v-563q-93 0 -93 99zM334 940q18 -18 18 -45q0 -31 -26 -64l-116 -145q-20 13 -20 45q0 30 27 64z"/>
<glyph horiz-adv-x="559" glyph-name="afii10053" unicode="Є" d="M470 346q0 -10 -5 -22.5t-27 -26.5t-57 -14h-253q6 -97 49 -158t130 -61q57 0 112 19.5t82 38.5l27 20q0 -72 -62 -116t-150 -44q-72 0 -127.5 28.5t-87 77.5t-47.5 107t-16 124q0 64 16 121.5t47.5 106.5t87 77.5t127.5 28.5q88 0 150 -44t62 -116q-4 3 -11 8.5t-30 19 t-47 23.5t-60.5 18.5t-72.5 8.5q-89 0 -132 -63.5t-48 -162.5l19 1h324z"/>
<glyph horiz-adv-x="491" glyph-name="afii10054" unicode="Ѕ" d="M132 472q0 -26 20 -49q29 -33 130 -75q37 -16 60 -28.5t48.5 -33.5t38 -50.5t12.5 -68.5q0 -80 -43.5 -130.5t-141.5 -50.5q-79 0 -135 30t-56 81q0 27 25 48q21 -32 69 -54.5t94 -22.5t74 24t28 75q0 17 -10 33t-21 27t-37.5 25t-40 20.5t-48.5 21.5q-34 15 -54 26.5 t-45 32.5t-37 50.5t-12 68.5q0 80 43.5 130.5t141.5 50.5q79 0 135 -30t56 -81q0 -27 -25 -48q-21 32 -69 54.5t-94 22.5t-76 -24t-30 -75z"/>
<glyph horiz-adv-x="192" glyph-name="afii10055" unicode="І" d="M50 99v554q92 0 92 -99v-554q-92 0 -92 99z"/>
<glyph horiz-adv-x="192" glyph-name="afii10056" unicode="Ї" d="M50 99v554q92 0 92 -99v-554q-92 0 -92 99zM-52 796q0 23 15 38.5t37 15.5t37.5 -16t15.5 -38t-15.5 -36.5t-37.5 -14.5t-37 14.5t-15 36.5zM129 796q0 23 15 38.5t37 15.5t37.5 -16t15.5 -38t-15.5 -36.5t-37.5 -14.5t-37 14.5t-15 36.5z"/>
<glyph horiz-adv-x="362" glyph-name="afii10057" unicode="Ј" d="M312 553v-418q0 -22 -2 -39.5t-10.5 -39t-23 -36t-41.5 -24.5t-64 -10q-38 0 -64.5 11.5t-37.5 30.5t-15 34.5t-4 32.5l1 19q5 -7 13.5 -17.5t36.5 -28t58 -17.5q70 0 70 109v493q18 0 28 -2t25 -10t22.5 -30.5t7.5 -57.5z"/>
<glyph horiz-adv-x="824" glyph-name="afii10058" unicode="Љ" d="M613 457q182 0 182 -218q0 -127 -45 -183t-143 -56h-17l-200 8v555h-188v-439q0 -17 -3 -33.5t-11 -39.5t-29 -37t-51 -14q-95 0 -102 67q24 -5 46 -5q57 0 57 59v532h370v-266q16 32 53.5 51t80.5 19zM613 381q-88 0 -135 -47v-254l107 -5q71 0 101.5 38t30.5 126 q0 61 -24.5 101.5t-79.5 40.5z"/>
<glyph horiz-adv-x="793" glyph-name="afii10059" unicode="Њ" d="M584 457q182 0 182 -218q0 -127 -45 -183t-143 -56h-17l-110 4q-92 0 -92 96v190h-186v-290q-92 0 -92 99v554q92 0 92 -99v-191h186v290q92 0 92 -98v-166q17 31 54 49.5t79 18.5zM584 381q-85 0 -133 -45v-256l105 -5q71 0 101.5 38t30.5 126q0 61 -24.5 101.5 t-79.5 40.5z"/>
<glyph horiz-adv-x="584" glyph-name="afii10060" unicode="Ћ" d="M431 653q0 -84 -60 -84h-123v-172h6q23 66 120 66q50 0 86.5 -15t54 -34.5t27.5 -47.5t11.5 -43.5t1.5 -33.5v-289q-86 0 -86 95v191q0 16 -3.5 31t-13 32.5t-31.5 28t-54 10.5q-58 0 -85.5 -27.5t-33.5 -61.5v-299q-18 3 -25.5 5t-23 8.5t-23 16t-14 27.5t-6.5 42v470 h-173q-2 4 -2 15q0 15 5 29t25 27t53 13h367z"/>
<glyph horiz-adv-x="510" glyph-name="afii10061" unicode="Ќ" d="M191 325q61 0 105.5 24.5t69.5 67.5t36.5 93.5t11.5 110.5l-2 34q65 -42 65 -126q0 -79 -36.5 -148.5t-103.5 -108.5q13 -21 72.5 -99.5t123.5 -172.5q-61 0 -90 15.5t-49 47.5l-132 182q-20 -4 -78 -4q-26 0 -46 4v-245q-88 5 -88 95v558q88 0 88 -82v-239q25 -7 53 -7z M362 907q18 -18 18 -45q0 -31 -26 -64l-116 -145q-20 13 -20 45q0 30 27 64z"/>
<glyph horiz-adv-x="540" glyph-name="afii10062" unicode="Ў" d="M84 74h69q16 0 31 3.5t35 23t26 52.5l-235 497l11 1q11 1 20 1q58 0 72 -32l175 -381l151 410q12 2 23 2q55 0 55 -31q0 -7 -5 -19l-185 -458q-2 -6 -6 -15.5t-19 -34t-33.5 -43.5t-51 -34.5t-70.5 -15.5h-151q0 11 5 26t26.5 31.5t56.5 16.5zM149 767q0 10 4 22 q7 2 21 2q34 0 34 -13q-1 -7 -1 -22q0 -25 21 -38.5t51 -13.5t51.5 13.5t21.5 38.5q0 15 -1 22q0 13 34 13l21 -2q3 -9 3 -22q0 -53 -35.5 -85.5t-94.5 -32.5q-58 0 -94 32.5t-36 85.5z"/>
<glyph horiz-adv-x="477" glyph-name="afii10145" unicode="Џ" d="M291 -149q-4 1 -16 2.5t-16.5 3t-14.5 5.5t-15 11t-10.5 17.5t-8 27.5t-2.5 39v43h-171v653q93 0 93 -99v-464h215v563q93 0 93 -99v-554h-147v-149z"/>
<glyph horiz-adv-x="497" glyph-name="afii10017" unicode="А" d="M316 583l194 -578q-9 -5 -26 -5q-64 0 -89 76q-1 4 -12.5 37t-19.5 59h-242q-6 -17 -12.5 -39.5t-11 -36.5t-7.5 -22q-22 -74 -91 -74l-14 1l202 652h57q48 0 72 -70zM142 240h200q-19 61 -56.5 175t-44.5 139l-39 -122q-38 -123 -60 -192z"/>
<glyph horiz-adv-x="476" glyph-name="afii10018" unicode="Б" d="M273 381q-90 0 -135 -48v-253l107 -5q71 0 101.5 38t30.5 126q0 61 -24.5 101.5t-79.5 40.5zM451 653q0 -11 -5 -26t-26.5 -31.5t-55.5 -16.5h-227q0 -3 0.5 -10t0.5 -11v-173q15 33 53 52.5t82 19.5q182 0 182 -218q0 -132 -48.5 -185.5t-156.5 -53.5l-200 8v571 q0 11 5 26t26 31.5t55 16.5h315z"/>
<glyph horiz-adv-x="510" glyph-name="afii10019" unicode="В" d="M278 0l-228 9v635l228 8q97 0 140.5 -38t43.5 -131q0 -122 -57 -172q72 -40 75 -134v-14q-2 -90 -49.5 -126.5t-152.5 -36.5zM243 338q73 0 107.5 34t34.5 108q0 53 -25 77t-89 24l-143 -8v-492l143 -9q75 0 103 22.5t28 91.5q0 66 -60 93q-32 -10 -58 -10q-43 0 -79 24 t-40 66q26 -21 78 -21z"/>
<glyph horiz-adv-x="428" glyph-name="afii10020" unicode="Г" d="M50 99v554h391q0 -10 -2.5 -22t-10.5 -29t-27 -28t-48 -11h-210v-563q-93 0 -93 99z"/>
<glyph horiz-adv-x="565" glyph-name="afii10021" unicode="Д" d="M86 0v-59q0 -19 -14.5 -29t-28.5 -12t-41 -3h-9v122q0 18 14 28t31 12.5t44 2.5q13 0 21 16t8 42v533h399v-560q69 -2 69 -43v-108q0 -19 -14.5 -29t-28.5 -12t-41 -3h-9v102h-400zM421 566h-221v-443q0 -9 -2 -31h223v474z"/>
<glyph horiz-adv-x="444" glyph-name="afii10022" unicode="Е" d="M146 289v-212h265q0 -22 -2 -32.5t-10.5 -22.5t-29.5 -17t-56 -5h-253v653h350q0 -77 -97 -77h-167v-208h232q4 -22 4 -33q0 -22 -15 -34t-54 -12h-167z"/>
<glyph horiz-adv-x="776" glyph-name="afii10024" unicode="Ж" d="M317 324q20 0 31 2v325q81 0 81 -82v-241q13 -4 49 -4q45 0 79 16.5t54 43.5t32.5 66.5t17 79.5t4.5 89l-2 34q61 -43 61 -126q0 -78 -34 -147.5t-96 -108.5q13 -22 67.5 -100t113.5 -171q-56 0 -83 15.5t-46 47.5l-121 181q-19 -4 -53 -4q-24 0 -43 4v-244q-81 5 -81 95 v145h-8.5h-9h-7.5q-53 0 -72 4l-121 -181q-19 -32 -46 -47.5t-83 -15.5q59 93 113.5 171t67.5 100q-62 39 -96 108.5t-34 147.5q0 83 61 126q-2 -13 -2 -34q0 -59 10.5 -109.5t33.5 -93.5t64.5 -67.5t97.5 -24.5z"/>
<glyph horiz-adv-x="502" glyph-name="afii10025" unicode="З" d="M50 79q70 -36 145 -36q70 0 120.5 45t50.5 107q0 54 -38 92.5t-95 38.5q-43 0 -93 -27v67q35 10 75 28t80 53.5t40 71.5q0 35 -31.5 58t-70.5 23q-30 0 -54.5 -12t-38 -28.5t-23 -35t-13 -30.5t-3.5 -15q-11 36 -11 71q0 121 155 121q80 0 123.5 -42.5t43.5 -103.5 q0 -46 -32.5 -85t-84.5 -59q77 -6 117 -55.5t40 -123.5q0 -93 -67 -154.5t-166 -61.5q-114 0 -169 93z"/>
<glyph horiz-adv-x="548" glyph-name="afii10026" unicode="И" d="M498 653v-564q-1 -62 -17.5 -75.5t-65.5 -13.5v489q-2 -4 -256 -448q-11 -19 -32 -28.5t-36 -11t-41 -1.5v589q0 64 78 64l8 -1v-495q3 7 254 454q11 19 31.5 29t35 11.5t41.5 1.5z"/>
<glyph horiz-adv-x="548" glyph-name="afii10027" unicode="Й" d="M498 89v564q-27 0 -41.5 -1.5t-35 -11.5t-31.5 -29q-251 -447 -254 -454v495q-4 1 -8 1q-78 0 -78 -64v-589q26 0 41 1.5t36 11t32 28.5q254 444 256 448v-489q27 0 38 1.5t23.5 9.5t17 26.5t4.5 51.5zM154 795q0 10 4 22q7 2 21 2q34 0 34 -13q-1 -7 -1 -22 q0 -25 21 -38.5t51 -13.5t51.5 13.5t21.5 38.5q0 15 -1 22q0 13 34 13l21 -2q3 -9 3 -22q0 -53 -35.5 -85.5t-94.5 -32.5q-58 0 -94 32.5t-36 85.5z"/>
<glyph horiz-adv-x="510" glyph-name="afii10028" unicode="К" d="M191 325q61 0 105.5 24.5t69.5 67.5t36.5 93.5t11.5 110.5l-2 34q65 -42 65 -126q0 -79 -36.5 -148.5t-103.5 -108.5q13 -21 72.5 -99.5t123.5 -172.5q-61 0 -90 15.5t-49 47.5l-132 182q-20 -4 -78 -4q-26 0 -46 4v-245q-88 5 -88 95v558q88 0 88 -82v-239q25 -7 53 -7z "/>
<glyph horiz-adv-x="565" glyph-name="afii10029" unicode="Л" d="M417 99v464h-215v-439q0 -17 -3 -33.5t-11 -39.5t-29 -37t-51 -14q-95 0 -102 67q24 -5 46 -5q57 0 57 59v532h401v-653q-93 0 -93 99z"/>
<glyph horiz-adv-x="673" glyph-name="afii10030" unicode="М" d="M282 51l-150 416v-398q-1 -25 -6.5 -39.5t-17.5 -21t-22 -7.5t-33 -1v653h7q53 0 74.5 -17t39.5 -69q124 -355 164 -461l179 505q15 27 38.5 34.5t60.5 7.5h7v-653q-23 0 -33 1t-22.5 7.5t-17.5 21t-6 40.5v400q-1 -2 -103 -284q-31 -92 -47 -135l-18 -51h-42 q-17 0 -30 12.5t-18 25.5z"/>
<glyph horiz-adv-x="559" glyph-name="afii10031" unicode="Н" d="M417 100v190h-275v-290q-92 0 -92 99v554q92 0 92 -99v-191h275v290q92 0 92 -98v-555q-37 0 -64.5 21.5t-27.5 78.5z"/>
<glyph horiz-adv-x="569" glyph-name="afii10032" unicode="О" d="M297 653q68 0 119 -28t76.5 -65.5t41 -88.5t19 -84.5t3.5 -65.5t-3.5 -65.5t-19 -85t-42 -89.5t-78 -66.5t-121.5 -28.5q-57 0 -102.5 19t-72.5 51.5t-45 67.5t-26 76.5t-11 68.5t-3 52q0 21 1.5 43t8 56.5t17 64.5t31 61.5t47.5 54.5t68 37.5t92 14.5zM297 65 q46 0 81 21.5t52.5 50.5t28.5 68t13.5 65.5t2.5 50.5t-2.5 50.5t-13.5 66t-28.5 69t-52.5 51t-81 21.5q-48 0 -84 -21.5t-54 -51t-29.5 -69t-14 -65.5t-2.5 -51q0 -23 3 -50.5t14.5 -65.5t30.5 -67.5t54.5 -51t81.5 -21.5z"/>
<glyph horiz-adv-x="477" glyph-name="afii10033" unicode="П" d="M345 99v464h-215v-563q-93 0 -93 99v554h401v-653q-93 0 -93 99z"/>
<glyph horiz-adv-x="535" glyph-name="afii10034" unicode="Р" d="M323 272q55 0 79.5 40.5t24.5 101.5q0 88 -30.5 126t-101.5 38l-157 -5v-573q-46 3 -62 16q-26 22 -26 79v550l250 8q108 0 156.5 -53.5t48.5 -185.5q0 -218 -182 -218q-57 0 -100.5 31.5t-43.5 80.5q0 14 2 21q4 -6 12.5 -15.5t45 -25.5t84.5 -16z"/>
<glyph horiz-adv-x="559" glyph-name="afii10035" unicode="С" d="M307 64q57 0 112 19.5t82 38.5l27 20q0 -72 -62 -116t-150 -44q-72 0 -127.5 28.5t-87 77.5t-47.5 107t-16 124q0 64 16 121.5t47.5 106.5t87 77.5t127.5 28.5q88 0 150 -44t62 -116q-4 3 -11 8.5t-30 19t-47 23.5t-60.5 18.5t-72.5 8.5q-49 0 -85.5 -21t-56.5 -58 t-29 -80.5t-9 -94.5q0 -70 15.5 -124t57.5 -91.5t107 -37.5z"/>
<glyph horiz-adv-x="405" glyph-name="afii10036" unicode="Т" d="M431 653q0 -84 -60 -84h-123v-569q-18 3 -25.5 5t-23 8.5t-23 16t-14 27.5t-6.5 42v470h-173q-2 4 -2 15q0 15 5 29t25 27t53 13h367z"/>
<glyph horiz-adv-x="540" glyph-name="afii10037" unicode="У" d="M84 74h69q16 0 31 3.5t35 23t26 52.5l-235 497l11 1q11 1 20 1q58 0 72 -32l175 -381l151 410q12 2 23 2q55 0 55 -31q0 -7 -5 -19l-185 -458q-2 -6 -6 -15.5t-19 -34t-33.5 -43.5t-51 -34.5t-70.5 -15.5h-151q0 11 5 26t26.5 31.5t56.5 16.5z"/>
<glyph horiz-adv-x="569" glyph-name="afii10038" unicode="Ф" d="M32 328q0 29 3 58.5t16 75.5t35 81.5t64.5 66t100.5 39.5v64q63 0 80 -62q62 -5 108.5 -34t70.5 -65.5t38 -84t17.5 -78.5t3.5 -61q0 -29 -3 -59.5t-17 -78t-37 -84t-68 -67t-106 -37.5v-58q-61 0 -79 58q-50 6 -89.5 27.5t-63 53t-39.5 64.5t-23 71t-9.5 62.5t-2.5 47.5 zM486 328q0 29 -5 60.5t-18.5 74.5t-45.5 74.5t-79 40.5v-497q47 9 79 40t45.5 73.5t18.5 74t5 59.5zM115 328q0 -26 5 -56.5t17.5 -70.5t42 -72t71.5 -44v489q-43 -12 -73 -44t-42 -73.5t-16.5 -71.5t-4.5 -57z"/>
<glyph horiz-adv-x="563" glyph-name="afii10039" unicode="Х" d="M281 397l107 191q3 7 9 17t27 26.5t45 16.5q22 0 43 -12l-181 -310l182 -316q-18 -7 -41 -7q-38 0 -63 24q-13 13 -20 25l-107 201l-1 -3l-107 -201q-8 -13 -20 -25q-25 -24 -63 -24q-10 0 -20.5 2t-15.5 4l-5 1l182 316l-181 310q21 12 43 12q24 0 44 -15t28 -30l9 -15z "/>
<glyph horiz-adv-x="477" glyph-name="afii10040" unicode="Ц" d="M432 0h-395v653q93 0 93 -99v-464h215v563q93 0 93 -99v-464h52q28 -10 28 -38v-108q0 -19 -12 -29.5t-24.5 -12.5t-38.5 -3h-11v101z"/>
<glyph horiz-adv-x="477" glyph-name="afii10041" unicode="Ч" d="M431 554v-554q-82 0 -82 99v141h-7q-25 -69 -117 -69q-48 0 -83.5 15.5t-52.5 36t-26.5 49.5t-11 45t-1.5 35v301q83 0 83 -99v-199q0 -17 3.5 -32t12.5 -33.5t30.5 -29.5t52.5 -11q36 0 61.5 13.5t36.5 33.5t15.5 36t4.5 29v292q81 0 81 -99z"/>
<glyph horiz-adv-x="715" glyph-name="afii10042" unicode="Ш" d="M415 554v-464h175v563q93 0 93 -99v-554h-631v653q93 0 93 -99v-464h177v563q93 0 93 -99z"/>
<glyph horiz-adv-x="715" glyph-name="afii10043" unicode="Щ" d="M677 0h-625v653q93 0 93 -99v-464h177v563q93 0 93 -99v-464h175v563q93 0 93 -99v-464h52q28 -10 28 -38v-108q0 -19 -12 -29.5t-24.5 -12.5t-38.5 -3h-11v101z"/>
<glyph horiz-adv-x="535" glyph-name="afii10044" unicode="Ъ" d="M273 457q182 0 182 -218q0 -127 -45 -183t-143 -56h-17l-200 8v582h-96q0 10 5 22.5t27 26.5t57 14h95q2 -19 2 -49q0 -26 -2 -219q15 33 53 52.5t82 19.5zM273 381q-90 0 -135 -48v-253l107 -5q71 0 101.5 38t30.5 126q0 61 -24.5 101.5t-79.5 40.5z"/>
<glyph horiz-adv-x="633" glyph-name="afii10045" unicode="Ы" d="M273 457q182 0 182 -218q0 -132 -48.5 -185.5t-156.5 -53.5l-200 8v645q46 -3 62 -16q26 -22 26 -79v-173q15 33 53 52.5t82 19.5zM273 381q-90 0 -135 -48v-253l107 -5q71 0 101.5 38t30.5 126q0 61 -24.5 101.5t-79.5 40.5zM510 99v554q92 0 92 -99v-554q-92 0 -92 99z "/>
<glyph horiz-adv-x="535" glyph-name="afii10046" unicode="Ь" d="M273 457q182 0 182 -218q0 -132 -48.5 -185.5t-156.5 -53.5l-200 8v645q46 -3 62 -16q26 -22 26 -79v-173q15 33 53 52.5t82 19.5zM273 381q-90 0 -135 -48v-253l107 -5q71 0 101.5 38t30.5 126q0 61 -24.5 101.5t-79.5 40.5z"/>
<glyph horiz-adv-x="559" glyph-name="afii10047" unicode="Э" d="M96 346h324q4 0 10 -0.5t9 -0.5q-5 99 -48 162.5t-132 63.5q-57 0 -112 -19.5t-82 -39.5l-27 -19q0 72 62 116t150 44q72 0 127.5 -28.5t87 -77.5t47.5 -106.5t16 -121.5q0 -66 -16 -124t-47.5 -107t-87 -77.5t-127.5 -28.5q-88 0 -150 44t-62 116q4 -3 11 -8.5t30 -19 t47 -23.5t60.5 -18.5t72.5 -8.5q87 0 130 61t49 158h-253q-35 0 -57 14t-27 26.5t-5 22.5z"/>
<glyph horiz-adv-x="669" glyph-name="afii10048" unicode="Ю" d="M50 99v554q92 0 92 -99v-177h61q12 123 71.5 199.5t151.5 76.5q206 0 206 -322q0 -154 -60.5 -249.5t-165.5 -95.5q-201 0 -206 313h-58v-299q-92 0 -92 99zM552 323q0 241 -131 241q-66 0 -103 -67t-37 -178q0 -125 32 -187t102 -62q64 0 100.5 64t36.5 189z"/>
<glyph horiz-adv-x="535" glyph-name="afii10049" unicode="Я" d="M238 276q30 0 55 5.5t39.5 13t24.5 15.5t13 14l4 5q2 -7 2 -21q0 -38 -26.5 -66t-68.5 -40l-90 -139q-21 -32 -49.5 -47.5t-89.5 -15.5l136 200q-138 24 -138 224q0 131 47.5 180t157.5 49l250 -8v-550q0 -82 -57 -92q-8 -2 -31 -3v573l-157 5q-72 0 -102 -33.5 t-30 -120.5q0 -61 27.5 -104.5t82.5 -43.5z"/>
<glyph horiz-adv-x="476" glyph-name="afii10065" unicode="а" d="M51 354q0 80 42.5 118.5t130.5 38.5t145 -56.5t57 -156.5v-227q-101 -85 -204 -85q-73 0 -118.5 41t-45.5 121q0 37 16 65t40.5 44t58.5 25.5t63.5 12.5t62.5 3q42 0 57 -1q0 60 -35.5 98t-110.5 38q-22 0 -43 -4.5t-36.5 -11.5t-29.5 -16t-23 -17.5t-15.5 -16 t-8.5 -10.5zM356 107v128q-12 1 -34 1q-184 0 -184 -96q0 -26 11 -43.5t29 -25t32 -10.5t27 -3q62 0 119 49z"/>
<glyph d="M429 651q-2 -48 -32.5 -76.5t-73.5 -41t-86.5 -23t-77 -34.5t-39.5 -65q53 30 130 30q57 0 99.5 -16.5t65.5 -39.5t36.5 -54.5t17.5 -56t4 -49.5q0 -48 -11.5 -89t-36.5 -75.5t-69.5 -54.5t-105.5 -20q-117 0 -169 70t-53 181q0 121 28 199q13 51 41.5 81t63.5 42.5 t70 20.5t69 25t53 46h76zM121 222q0 -72 31.5 -120.5t100.5 -48.5t101 48.5t32 120.5q0 24 -4.5 46t-17 49t-41 43t-70.5 16q-41 0 -69.5 -16t-41 -43t-17 -49t-4.5 -46z" glyph-name="afii10066" unicode="б"/>
<glyph horiz-adv-x="444" glyph-name="afii10067" unicode="в" d="M241 0l-195 7v498l195 6q82 0 119 -30t37 -104q0 -85 -43 -133q57 -34 58 -103v-11q-1 -72 -41.5 -101t-129.5 -29zM212 270q57 0 84.5 25t27.5 80q0 38 -20 55t-70 17q-22 -1 -59 -3t-54 -3v-369q18 -1 55.5 -3.5t57.5 -3.5q59 0 81.5 16t22.5 66q0 47 -44 67 q-22 -7 -50 -7q-38 0 -69 22.5t-34 62.5q30 -22 71 -22z"/>
<glyph horiz-adv-x="405" glyph-name="afii10068" unicode="г" d="M50 99v394h341q0 -10 -2.5 -22t-10.5 -29t-27 -28t-48 -11h-160v-403q-93 0 -93 99z"/>
<glyph horiz-adv-x="480" glyph-name="afii10069" unicode="д" d="M70 1v-45q0 -16 -12.5 -24.5t-23 -10t-33.5 -2.5h-9v99q0 22 19.5 29t53.5 7q22 0 22 45v412h326v-432q55 -2 55 -36v-88q0 -12 -5.5 -19.5t-17.5 -10.5t-21 -4.5t-25 -1.5h-9v82h-320zM337 438h-174v-337q0 -5 -2 -23h176v360z"/>
<glyph horiz-adv-x="469" glyph-name="afii10070" unicode="е" d="M232 511q98 0 142 -66t44 -166q0 -28 -3 -53h-303q4 -62 38 -109t96 -47q36 0 66.5 8t49 19t31.5 22t18 19l5 8q3 -13 3 -26q0 -59 -50 -96.5t-117 -37.5q-53 0 -93.5 18.5t-64 46.5t-38 66.5t-19.5 72t-5 69.5q0 252 200 252zM115 297h224q-3 138 -112 138 q-104 0 -112 -138z"/>
<glyph horiz-adv-x="604" glyph-name="afii10072" unicode="ж" d="M246 259h20v250q71 0 71 -68v-180q9 -2 27 -2h6q139 0 139 221l-5 38q60 -45 60 -109q0 -61 -25.5 -114t-72.5 -84q16 -27 35 -52q41 -55 106 -159q-50 0 -73 12.5t-39 37.5q-15 23 -46 68t-46 68q-11 -2 -37 -2q-11 0 -29 2v-186q-71 5 -71 77v107h-15q-39 0 -52 2 q-15 -23 -46 -68.5t-46 -67.5q-16 -25 -39 -37.5t-73 -12.5q65 104 106 159q14 18 35 52q-47 31 -72.5 84.5t-25.5 113.5q0 64 60 109q-5 -25 -5 -38q0 -61 13.5 -108t49 -80t90.5 -33z"/>
<glyph horiz-adv-x="414" glyph-name="afii10073" unicode="з" d="M24 70l6 7q59 -25 118 -25q56 0 96.5 31t40.5 75q0 37 -30 63.5t-76 26.5q-33 0 -81 -21v59q29 7 62 20.5t66 38t33 49.5q0 24 -24.5 39t-55.5 15q-23 0 -42.5 -8.5t-30.5 -20t-18.5 -24.5t-10 -21t-2.5 -11l-9 -2q-9 27 -9 56q0 93 132 93q69 0 107 -32.5t38 -79.5 q0 -31 -22 -58t-59 -44q57 -9 86 -45t29 -88q0 -70 -57.5 -116.5t-142.5 -46.5q-96 0 -144 70z"/>
<glyph horiz-adv-x="450" glyph-name="afii10074" unicode="и" d="M400 511v-437q0 -27 -4 -42.5t-15 -22.5t-21 -8t-33 -1v363q-1 -2 -189 -329q-22 -34 -92 -34v457q0 54 65 54l11 -2v-365q1 2 131 235q23 39 55 97q10 16 27 24.5t29.5 9.5t35.5 1z"/>
<glyph horiz-adv-x="450" glyph-name="afii10075" unicode="й" d="M400 74v437q-23 0 -35.5 -1t-29.5 -9.5t-27 -24.5q-32 -58 -55 -97q-130 -233 -131 -235v365q-6 2 -11 2q-65 0 -65 -54v-457q70 0 92 34q188 327 189 329v-363q23 0 33 1t21 8t15 22.5t4 42.5zM114 654q0 10 4 22q7 2 21 2q34 0 34 -13q-1 -7 -1 -22q0 -25 21 -38.5 t51 -13.5t51.5 13.5t21.5 38.5q0 15 -1 22q0 13 34 13l21 -2q3 -9 3 -22q0 -53 -35.5 -85.5t-94.5 -32.5q-58 0 -94 32.5t-36 85.5z"/>
<glyph horiz-adv-x="444" glyph-name="afii10076" unicode="к" d="M163 259q63 0 103.5 33t55.5 80.5t15 108.5l-4 35q64 -39 64 -106q0 -61 -28.5 -114t-80.5 -84q15 -24 45 -61q70 -90 113 -151q-55 0 -81 12.5t-43 37.5q-61 82 -104 137q-23 -3 -61 -3q-15 0 -30 3v-187q-80 5 -80 77v433q80 0 80 -68v-178q22 -5 36 -5z"/>
<glyph horiz-adv-x="499" glyph-name="afii10077" unicode="л" d="M368 77v364h-190v-344q0 -13 -2.5 -26t-9.5 -31t-25 -29t-45 -11q-83 0 -90 52q16 -3 40 -3q51 0 51 46v416h352v-511q-81 0 -81 77z"/>
<glyph horiz-adv-x="563" glyph-name="afii10078" unicode="м" d="M227 42l-116 292v-276q-2 -40 -18 -49t-56 -9v511h11q44 0 63.5 -14.5t35.5 -54.5q116 -306 131 -342q24 63 71 187t71 187q15 24 35.5 30.5t53.5 6.5h10v-511q-29 0 -41 2t-22 15.5t-11 41.5v281q-18 -43 -131 -340h-39q-15 0 -27 10.5t-16 21.5z"/>
<glyph horiz-adv-x="457" glyph-name="afii10079" unicode="н" d="M328 81v142h-201v-223q-81 0 -81 80v431q81 0 81 -80v-143h201v223q80 0 80 -80v-431q-32 0 -56 17.5t-24 63.5z"/>
<glyph d="M28 262q0 29 3.5 57t16.5 64.5t34.5 63.5t61.5 45.5t94 18.5t94 -18.5t61.5 -45.5t34.5 -63.5t16.5 -64.5t3.5 -57q0 -75 -18.5 -134.5t-67.5 -100.5t-124 -41t-124 41t-67.5 100.5t-18.5 134.5zM116 259q0 -84 30 -139.5t95 -55.5t95 55.5t30 139.5q0 27 -4 52.5 t-16 56.5t-39 49.5t-66 18.5t-66 -18.5t-39 -49.5t-16 -56.5t-4 -52.5z" glyph-name="afii10080" unicode="о"/>
<glyph horiz-adv-x="435" glyph-name="afii10081" unicode="п" d="M307 80v353h-185v-433q-82 0 -82 80v431h348v-511q-81 0 -81 80z"/>
<glyph horiz-adv-x="507" glyph-name="afii10082" unicode="р" d="M132 -226q-16 0 -28 3.5t-25.5 13t-21 32.5t-7.5 57v572q72 59 197 59q61 0 104 -23t65 -63t31.5 -84.5t9.5 -97.5q0 -105 -59 -181t-164 -76q-58 0 -102 28v-240zM128 405l1 -313q43 -26 111 -26q66 0 102 53.5t36 127.5q0 79 -32 131.5t-106 52.5q-65 0 -112 -26z"/>
<glyph horiz-adv-x="469" glyph-name="afii10083" unicode="с" d="M252 -14q-105 0 -162 76t-57 181q0 268 219 268q67 0 117 -37.5t50 -96.5q0 -13 -3 -26q-2 3 -5.5 8t-17.5 18.5t-31.5 23.5t-48.5 18t-67 8q-72 0 -103 -51t-31 -129q0 -72 35.5 -124.5t98.5 -52.5q36 0 66.5 8t49 19t31.5 22t18 19l5 8q3 -13 3 -26q0 -59 -50 -96.5 t-117 -37.5z"/>
<glyph horiz-adv-x="313" glyph-name="afii10084" unicode="т" d="M335 511l5 -5q0 -70 -51 -70h-89v-437q-16 3 -22.5 4.5t-20.5 7t-20.5 13t-12 22t-5.5 34.5v356h-130q-4 8 -4 17q0 22 15 40t54 18h281z"/>
<glyph horiz-adv-x="463" glyph-name="afii10085" unicode="у" d="M86 -56h58q8 0 17 2t21 8.5t21.5 22.5t12.5 39l-200 493l5 1h7q5 1 21 1q53 0 66 -34l140 -361q25 76 71 222.5t53 168.5q3 0 12 1.5t12 1.5q51 0 51 -35q0 -7 -4 -21l-155 -449q-2 -8 -7 -20.5t-18 -35.5t-29.5 -41t-43.5 -32t-58 -14h-132q0 12 4.5 28.5t24 35 t50.5 18.5z"/>
<glyph horiz-adv-x="529" glyph-name="afii10086" unicode="ф" d="M233 -33v34q-107 9 -156 79.5t-49 173.5q0 25 3.5 49.5t16.5 56.5t34 56t60 43t91 23v141q68 0 68 -117v-25q50 -5 87 -24t57 -43t32 -55.5t15.5 -55.5t3.5 -49q0 -99 -47 -169.5t-148 -82.5v-152q-68 0 -68 117zM116 251q0 -65 30 -114.5t87 -61.5v336q-44 -8 -72 -39 t-36.5 -61.5t-8.5 -59.5zM415 251q0 48 -26.5 97t-87.5 62v-334q55 12 84.5 61.5t29.5 113.5z"/>
<glyph horiz-adv-x="403" glyph-name="afii10087" unicode="х" d="M201 313l99 151q3 5 8.5 13t24.5 21t41 13q21 0 40 -9l-167 -245l169 -251q-17 -6 -38 -6q-35 0 -58 19q-15 15 -118 181l-1 -3q-107 -171 -117 -178q-23 -19 -58 -19q-9 0 -18.5 1.5t-13.5 2.5l-5 2l167 249l-166 244q20 10 39 10q22 0 40.5 -12t26.5 -24l8 -12z"/>
<glyph horiz-adv-x="437" glyph-name="afii10088" unicode="ц" d="M374 -19h-337v529q79 0 79 -80v-376h183v456q79 0 79 -80v-376h45q23 -8 23 -31v-87q0 -16 -10 -24.5t-20 -10t-33 -2.5h-9v82z"/>
<glyph horiz-adv-x="441" glyph-name="afii10089" unicode="ч" d="M388 430v-430q-82 0 -82 80v100q-29 -49 -104 -49q-44 0 -76 12.5t-47.5 28.5t-24 39t-10 35.5t-1.5 27.5v236q83 0 83 -80v-153q0 -12 2.5 -23t10 -24t25 -21t43.5 -8q30 0 52 9.5t31 24t13 26t4 20.5v229q81 0 81 -80z"/>
<glyph horiz-adv-x="600" glyph-name="afii10090" unicode="ш" d="M336 434v-364h137v441q73 0 73 -77v-434h-494v511q73 0 73 -77v-364h138v441q73 0 73 -77z"/>
<glyph horiz-adv-x="630" glyph-name="afii10091" unicode="щ" d="M559 -19h-507v530q75 0 75 -80v-377h144v457q76 0 76 -80v-377h142v457q75 0 75 -80v-377h42q23 -9 23 -31v-87q0 -16 -10 -24.5t-19.5 -10t-31.5 -2.5h-9v82z"/>
<glyph horiz-adv-x="434" glyph-name="afii10092" unicode="ъ" d="M253 360q161 0 161 -172q0 -98 -37.5 -143t-118.5 -45h-11l-193 6v446h-83q0 9 5 20.5t25 24.5t53 13h85v-7q2 -40 2 -72q0 -60 -1 -113q42 42 113 42zM253 291q-71 0 -113 -34v-185l88 -4q57 0 82 28t25 92q0 44 -20 73.5t-62 29.5z"/>
<glyph horiz-adv-x="529" glyph-name="afii10093" unicode="ы" d="M223 361q144 0 144 -173q0 -104 -38 -146t-123 -42l-159 6v505h9q15 -1 23.5 -3t20.5 -8.5t18 -23t6 -42.5v-116q38 43 99 43zM223 292q-62 0 -99 -34v-186q13 0 38.5 -2t39.5 -2q51 0 73.5 28t22.5 92q0 44 -18 74t-57 30zM420 80v431q80 0 80 -80v-431q-80 0 -80 80z "/>
<glyph horiz-adv-x="434" glyph-name="afii10094" unicode="ь" d="M247 362q165 0 165 -173q0 -104 -43.5 -146.5t-141.5 -42.5l-181 6v506h12q17 -1 26 -3t23 -9t21 -23.5t7 -42.5v-116q18 19 49 31.5t63 12.5zM247 292q-78 0 -112 -34v-185q14 0 43.5 -2t44.5 -3q58 0 83.5 28.5t25.5 92.5q0 44 -20 73.5t-65 29.5z"/>
<glyph horiz-adv-x="458" glyph-name="afii10095" unicode="э" d="M77 277l260 -1h2q-5 71 -36.5 116.5t-95.5 45.5q-43 0 -86.5 -16t-65.5 -32l-22 -16q0 62 48.5 99.5t118.5 37.5q109 0 162.5 -76t53.5 -184q0 -51 -12 -96.5t-36.5 -83.5t-67.5 -60t-100 -22q-70 0 -118.5 37.5t-48.5 100.5q9 -7 24.5 -18t61 -29t88.5 -18 q63 0 94.5 43.5t36.5 113.5h-187q-23 0 -39 7.5t-23 18t-9.5 18.5t-2.5 14z"/>
<glyph horiz-adv-x="581" glyph-name="afii10096" unicode="ю" d="M50 75v436q77 0 77 -79v-138h60q9 96 58 156.5t126 60.5q169 0 169 -254q0 -121 -49.5 -196t-136.5 -75q-165 0 -170 246h-57v-235q-77 0 -77 78zM474 251q0 189 -107 189q-55 0 -86 -52.5t-31 -139.5q0 -99 26.5 -147.5t84.5 -48.5q54 0 83.5 50t29.5 149z"/>
<glyph horiz-adv-x="444" glyph-name="afii10097" unicode="я" d="M195 222q22 0 41.5 5t31 12t19.5 14.5t11 12.5l4 5q4 -20 4 -30q0 -31 -20.5 -53t-53.5 -32q-9 -14 -69 -106q-17 -25 -42 -37.5t-77 -12.5l105 155q-51 17 -77 68t-26 108q0 103 37.5 141.5t124.5 38.5l197 -6v-428q0 -26 -5.5 -42.5t-17.5 -23t-20.5 -8.5t-23.5 -3h-10 v439q-19 1 -58 2t-58 2q-52 0 -74 -24.5t-22 -87.5q0 -45 20 -77t59 -32z"/>
<glyph horiz-adv-x="469" glyph-name="afii10071" unicode="ё" d="M110 632q0 17 12 29.5t29 12.5t29.5 -12.5t12.5 -29.5t-12.5 -29t-29.5 -12t-29 12t-12 29zM253 632q0 17 12 29.5t29 12.5t29.5 -12.5t12.5 -29.5t-12.5 -29t-29.5 -12t-29 12t-12 29zM232 511q98 0 142 -66t44 -166q0 -28 -3 -53h-303q4 -62 38 -109t96 -47 q36 0 66.5 8t49 19t31.5 22t18 19l5 8q3 -13 3 -26q0 -59 -50 -96.5t-117 -37.5q-53 0 -93.5 18.5t-64 46.5t-38 66.5t-19.5 72t-5 69.5q0 252 200 252zM115 297h224q-3 138 -112 138q-104 0 -112 -138z"/>
<glyph horiz-adv-x="405" glyph-name="afii10100" unicode="ѓ" d="M50 99v394h341q0 -10 -2.5 -22t-10.5 -29t-27 -28t-48 -11h-160v-403q-93 0 -93 99zM315 787q18 -18 18 -45q0 -32 -26 -64l-116 -145q-20 13 -20 45q0 30 27 64z"/>
<glyph horiz-adv-x="458" glyph-name="afii10101" unicode="є" d="M112 276l260 1q0 -6 -2.5 -14t-9.5 -18.5t-23 -18t-39 -7.5h-187q5 -70 36.5 -113.5t94.5 -43.5q43 0 86.5 16t65.5 32l22 17q0 -63 -48.5 -100.5t-118.5 -37.5q-57 0 -100 22t-67.5 60t-36.5 83.5t-12 96.5q0 108 53.5 184t162.5 76q70 0 118.5 -37.5t48.5 -99.5 q-9 7 -24.5 17.5t-61 28.5t-88.5 18q-64 0 -95.5 -45.5t-36.5 -116.5h2z"/>
<glyph horiz-adv-x="447" glyph-name="afii10102" unicode="ѕ" d="M130 367q0 -17 16 -35q24 -25 111 -58q33 -12 53 -22t43 -27t33.5 -40.5t10.5 -54.5q0 -64 -38.5 -104t-125.5 -40q-70 0 -119.5 24t-49.5 66q0 22 26 42q18 -24 59.5 -42t80.5 -18q38 0 61.5 17.5t23.5 54.5q0 21 -22 39.5t-43.5 28.5t-66.5 27q-31 12 -48.5 21t-40 26 t-33.5 40.5t-11 54.5q0 64 38.5 104t126.5 40q70 0 119.5 -24t49.5 -66q0 -24 -27 -42q-17 25 -58.5 42.5t-81.5 17.5q-38 0 -62.5 -17.5t-24.5 -54.5z"/>
<glyph horiz-adv-x="199" glyph-name="afii10103" unicode="і" d="M144 0q-4 1 -16 2.5t-16.5 3t-14.5 5.5t-15 11t-10.5 17.5t-8 27.5t-2.5 39v405q19 0 29.5 -2t25 -11t21.5 -32t7 -61v-405zM50 611q0 21 14 35.5t35 14.5t35.5 -14.5t14.5 -35.5t-14.5 -35t-35.5 -14t-35 14t-14 35z"/>
<glyph horiz-adv-x="199" glyph-name="afii10104" unicode="ї" d="M144 0q-4 1 -16 2.5t-16.5 3t-14.5 5.5t-15 11t-10.5 17.5t-8 27.5t-2.5 39v405q19 0 29.5 -2t25 -11t21.5 -32t7 -61v-405zM-35 589q0 20 13.5 33.5t32.5 13.5q20 0 34 -14t14 -33t-14 -33t-34 -14q-19 0 -32.5 13.5t-13.5 33.5zM127 589q0 20 13.5 33.5t32.5 13.5 q20 0 34 -14t14 -33t-14 -33t-34 -14q-19 0 -32.5 13.5t-13.5 33.5z"/>
<glyph horiz-adv-x="227" glyph-name="afii10105" unicode="ј" d="M78 611q0 21 14 35.5t35 14.5t35.5 -14.5t14.5 -35.5t-14.5 -35t-35.5 -14t-35 14t-14 35zM172 411v-486q0 -22 -2 -39.5t-10.5 -39t-23 -36t-41.5 -24.5t-64 -10q-38 0 -64.5 11.5t-37.5 30.5t-15 34.5t-4 32.5l1 19q5 -7 13.5 -17.5t36.5 -28t58 -17.5q70 0 70 109v561 q18 0 28 -2t25 -10t22.5 -30.5t7.5 -57.5z"/>
<glyph horiz-adv-x="643" glyph-name="afii10106" unicode="љ" d="M475 361q144 0 144 -173q0 -101 -35.5 -144.5t-113.5 -43.5h-13l-159 6v427h-134v-333q0 -14 -2 -27t-9 -31.5t-24 -30t-42 -11.5q-76 0 -84 62q20 -4 41 -4q39 0 39 40v413h294v-193q35 43 98 43zM475 292q-68 0 -99 -34v-186q13 0 38.5 -2t38.5 -2q52 0 74 27.5 t22 92.5q0 104 -74 104z"/>
<glyph horiz-adv-x="600" glyph-name="afii10107" unicode="њ" d="M433 361q144 0 144 -173q0 -101 -35.5 -144.5t-113.5 -43.5h-12l-85 3q-75 3 -75 78v142h-134v-223q-80 0 -80 80v431q80 0 80 -80v-143h134v223q80 0 80 -80v-112q37 42 97 42zM433 292q-62 0 -97 -32v-188q13 0 38 -2t38 -2q51 0 73.5 28t22.5 92q0 44 -18 74t-57 30z "/>
<glyph horiz-adv-x="584" glyph-name="afii10108" unicode="ћ" d="M370 581q0 -77 -56 -77h-85v-140h6q21 61 110 61q46 0 79.5 -14t49.5 -31.5t25 -43.5t10.5 -40t1.5 -31v-265q-79 0 -79 87v175q0 94 -94 94q-52 0 -77.5 -25t-31.5 -57v-274q-19 3 -29 6t-25.5 12t-22.5 27t-7 46v413h-122q-2 2 -2 13q0 14 4.5 27t23 25t48.5 12h50v73 q17 0 26.5 -1.5t22.5 -7.5t21 -22t10 -42h143z"/>
<glyph horiz-adv-x="444" glyph-name="afii10109" unicode="ќ" d="M163 259q63 0 103.5 33t55.5 80.5t15 108.5l-4 35q64 -39 64 -106q0 -61 -28.5 -114t-80.5 -84q15 -24 45 -61q70 -90 113 -151q-55 0 -81 12.5t-43 37.5q-61 82 -104 137q-23 -3 -61 -3q-15 0 -30 3v-187q-80 5 -80 77v433q80 0 80 -68v-178q22 -5 36 -5zM331 769 q18 -18 18 -45q0 -32 -26 -64l-116 -145q-20 13 -20 45q0 30 27 64z"/>
<glyph horiz-adv-x="463" glyph-name="afii10110" unicode="ў" d="M86 -56h58q8 0 17 2t21 8.5t21.5 22.5t12.5 39l-200 493l5 1h7q5 1 21 1q53 0 66 -34l140 -361q25 76 71 222.5t53 168.5q3 0 12 1.5t12 1.5q51 0 51 -35q0 -7 -4 -21l-155 -449q-2 -8 -7 -20.5t-18 -35.5t-29.5 -41t-43.5 -32t-58 -14h-132q0 12 4.5 28.5t24 35 t50.5 18.5zM117 648q0 10 4 22q7 2 21 2q34 0 34 -13q-1 -7 -1 -22q0 -25 21 -38.5t51 -13.5t51.5 13.5t21.5 38.5q0 15 -1 22q0 13 34 13l21 -2q3 -9 3 -22q0 -53 -35.5 -85.5t-94.5 -32.5q-58 0 -94 32.5t-36 85.5z"/>
<glyph horiz-adv-x="430" glyph-name="afii10193" unicode="џ" d="M266 -116q-3 1 -13 2t-14.5 2.5t-12.5 4.5t-12 8.5t-8.5 14t-6.5 21.5t-2 30v34h-144v510q78 0 78 -78v-363h180v441q78 0 78 -78v-432h-123v-117z"/>
<glyph horiz-adv-x="463" glyph-name="afii10050" unicode="Ґ" d="M441 674v-21q0 -10 -2.5 -22t-10.5 -29t-27 -28t-48 -11h-210v-563q-93 0 -93 99v554h308v127q29 0 40.5 -1.5t24 -11.5t15.5 -31.5t3 -61.5z"/>
<glyph horiz-adv-x="364" glyph-name="afii10098" unicode="ґ" d="M355 505q0 -14 -3 -27.5t-20.5 -30t-48.5 -16.5h-156v-431q-81 0 -81 80v430h236v97q25 0 35 -1.5t21 -11t14 -30.5t3 -59z"/>
</font>
</defs>
</svg>
